<svg xmlns="http://www.w3.org/2000/svg" version="1.1" xmlns:xlink="http://www.w3.org/1999/xlink" xmlns:svgjs="http://svgjs.dev/svgjs" viewBox="0 0 800 800" opacity="0.58"><defs><symbol id="bbburst-shape-1" viewBox="0 0 194 167"><path d="m97 0 96.129 166.5H.871L97 0Z"></path></symbol><symbol id="bbburst-shape-2" viewBox="0 0 126 115"><path d="m63 0 62.77 43.877-23.976 70.996H24.206L.23 43.877 63 0Z"></path></symbol><symbol id="bbburst-shape-3" viewBox="0 0 131 127"><path d="m66 0 66 63.5L66 127 0 63.5 66 0Z"></path></symbol><symbol id="bbburst-shape-4" viewBox="0 0 149 143"><path d="M71.647 2.781c.898-2.764 4.808-2.764 5.706 0l15.445 47.534a3 3 0 0 0 2.853 2.073h49.98c2.906 0 4.115 3.719 1.764 5.427L106.96 87.193a2.999 2.999 0 0 0-1.09 3.354l15.445 47.534c.898 2.764-2.266 5.062-4.617 3.354l-40.435-29.378a3 3 0 0 0-3.526 0l-40.435 29.378c-2.351 1.708-5.515-.59-4.617-3.354L43.13 90.547a3 3 0 0 0-1.09-3.354L1.605 57.815c-2.35-1.708-1.142-5.427 1.764-5.427h49.98a3 3 0 0 0 2.853-2.073L71.647 2.781Z"></path></symbol><symbol id="bbburst-shape-5" viewBox="0 0 145 145"><circle cx="72.5" cy="72.5" r="72.5"></circle></symbol><symbol id="bbburst-shape-6" viewBox="0 0 133 116"><path d="M59.7487 10.2513c-13.6683-13.66839-35.8291-13.66839-49.4974 0-13.66839 13.6683-13.66839 35.8291 0 49.4974l49.4974-49.4974ZM66.5 66.5 41.7513 91.2487 66.5 115.997l24.7487-24.7483L66.5 66.5Zm56.249-6.7513c13.668-13.6683 13.668-35.8291 0-49.4974-13.669-13.66839-35.8294-13.66839-49.4977 0l49.4977 49.4974Zm-112.4977 0 31.5 31.5 49.4974-49.4974-31.5-31.5-49.4974 49.4974Zm80.9974 31.5 31.5003-31.5-49.4977-49.4974-31.5 31.5 49.4974 49.4974Z"></path></symbol><symbol id="bbburst-shape-7" viewBox="0 0 139 124"><path fill-rule="evenodd" clip-rule="evenodd" d="M70.1641 15.0917C54.6093.764854 37.8293-2.10782 24.4032 2.82615 10.3804 7.97941.763366 21.4591 1.00047 37.0608c.1068 7.0273 2.86132 13.7317 7.0039 20.2001C12.1442 63.7249 17.853 70.2322 24.25 76.9024c3.8209 3.9842 7.8871 8.0312 12.0767 12.201h.0001c10.0335 9.9862 20.7748 20.6766 30.5497 32.8956 1.38 1.725 3.8972 2.005 5.6223.624.6706-.536 1.1228-1.244 1.3439-2.011 9.5768-11.748 20.0328-22.0735 29.8163-31.7351 4.19-4.1373 8.256-8.1528 12.078-12.1062 6.396-6.6176 12.106-13.0752 16.247-19.4911 4.144-6.4196 6.905-13.0811 7.012-20.0691.237-15.5124-9.399-28.8902-23.411-33.99923-13.32-4.85681-29.9542-2.08621-45.4209 11.88043Zm-3.7351 7.4919C52.1278 8.44857 37.6826 6.46918 27.1626 10.3352 16.2859 14.3323 8.8148 24.7824 8.99955 36.9392c.07575 4.9844 2.03755 10.2234 5.74165 16.0072 3.707 5.7881 8.9752 11.8418 15.2827 18.4187 3.5798 3.7328 7.4978 7.6329 11.6 11.7163 9.0476 9.0063 18.9911 18.9046 28.1786 29.8666 9.2999-11.068 19.4036-21.0473 28.5839-30.1144l.0007-.0006c4.1019-4.0508 8.0189-7.9196 11.5979-11.6222 6.307-6.5252 11.573-12.5298 15.278-18.2697 3.703-5.7362 5.658-10.924 5.734-15.8531.184-12.0276-7.267-22.3914-18.153-26.3608-10.71-3.90518-25.4722-1.80041-40.0023 12.867-1.5547 1.5694-4.0874 1.5813-5.6568.0265-.3146-.3116-.5666-.6625-.7559-1.0371Z"></path></symbol><symbol id="bbburst-shape-8" viewBox="0 0 87 168"><path d="m12 12 31.2546 18.0749c16.4102 9.4902 20.014 31.6325 7.4603 45.8369L36.3296 92.1884c-12.5684 14.2206-8.9394 36.3916 7.5068 45.8636L75 156" stroke-width="14" stroke-linecap="round" stroke-linejoin="round"></path></symbol><symbol id="bbburst-shape-9" viewBox="0 0 182 172"><path d="M13.5809 69.845 91 13.5967l77.419 56.2483-29.571 91.012H43.1524L13.5809 69.845Z" stroke-width="22"></path></symbol><symbol id="bbburst-shape-10" viewBox="0 0 145 145"><circle cx="72.5" cy="72.5" r="61.5" fill="none" stroke-width="22"></circle></symbol><symbol id="bbburst-shape-11" viewBox="0 0 194 167"><path d="M10.398 161 97 11l86.603 150H10.397Z" stroke-width="11"></path></symbol><symbol id="bbburst-shape-12" viewBox="0 0 170 151"><path d="M69.3728 54.2122 85 10.0031l15.627 44.2091c1.413 3.9958 5.19 6.6672 9.428 6.6673h49.312l-39.149 26.1447c-3.803 2.5401-5.399 7.3367-3.875 11.6488l15.179 42.94-40.9683-27.36c-3.3621-2.245-7.7453-2.245-11.1074 0l-40.9682 27.36 15.1785-42.94c1.5243-4.3121-.0712-9.1087-3.8746-11.6488L10.6333 60.8795h49.3112c4.2381-.0001 8.0159-2.6715 9.4283-6.6673Z" stroke-width="12"></path></symbol><symbol id="bbburst-shape-13" viewBox="0 0 159 159"><path stroke-width="22" d="M11 11h137v137H11z"></path></symbol><symbol id="bbburst-shape-14" viewBox="0 0 185 109"><path d="M168 16.5C168 58.1975 134.197 92 92.5 92 50.8025 92 17 58.1975 17 16.5" stroke-width="33" stroke-linecap="round"></path></symbol></defs><use xlink:href="#bbburst-shape-6" width="20.482796850276998" opacity="0.5598704280569025" transform="matrix(0.8533617371134007,0.5213192358150611,-0.5213192358150611,0.8533617371134007,977.3011667487626,92.87121866039206)" fill="#00a19d"></use><use xlink:href="#bbburst-shape-7" width="20.32219725487051" opacity="0.5627555153032708" transform="matrix(0.8464177877641106,0.5325194161310075,-0.5325194161310075,0.8464177877641106,927.9056531662161,86.48775842118602)" fill="#ff5c58"></use><use xlink:href="#bbburst-shape-4" width="20.88449801888286" opacity="0.6965907203849384" transform="matrix(0.7440924974892953,-0.6680766087658982,0.6680766087658982,0.7440924974892953,352.06920804572553,-41.35167959252337)" fill="#00a19d"></use><use xlink:href="#bbburst-shape-6" width="42.10300691640751" opacity="0.3605856628964186" transform="matrix(0.999044749561194,-0.04369883721806682,0.04369883721806682,0.999044749561194,251.72729169197294,-12.700611284365948)" fill="#ffa6d5"></use><use xlink:href="#bbburst-shape-4" width="17.359514903303772" opacity="0.744462748068434" transform="matrix(0.9259542910306074,-0.37763560600399587,0.37763560600399587,0.9259542910306074,561.6350705158217,-124.1612772567535)" fill="#ffa6d5"></use><use xlink:href="#bbburst-shape-2" width="25.697564996330065" opacity="0.6597743688086648" transform="matrix(0.9288661454914275,0.3704155555047577,-0.3704155555047577,0.9288661454914275,696.2441889185504,-135.12599771741571)" fill="#ffbd9b"></use><use xlink:href="#bbburst-shape-13" width="12.91941168697927" opacity="0.7039839695265147" transform="matrix(0.9401669218995435,-0.3407141895576666,0.3407141895576666,0.9401669218995435,634.0580488553805,-78.7907334998772)" fill="none" stroke="#00a19d"></use><use xlink:href="#bbburst-shape-11" width="55.916764471878324" opacity="0.3106651611221657" transform="matrix(0.8649774547510076,-0.5018107240508802,0.5018107240508802,0.8649774547510076,-48.571520723708915,-38.17516284154141)" fill="none" stroke="#ffbd9b"></use><use xlink:href="#bbburst-shape-5" width="18.663860157047118" opacity="0.6117833520588178" transform="matrix(0.8462993563676185,0.5327076115579302,-0.5327076115579302,0.8462993563676185,980.9505169886714,43.968519155963406)" fill="#ffa6d5"></use><use xlink:href="#bbburst-shape-12" width="35.567186683372476" opacity="0.3431135804958523" transform="matrix(0.9998360462375158,-0.01810747481379845,0.01810747481379845,0.9998360462375158,136.5999357997137,-244.8321395333394)" fill="none" stroke="#ffa6d5"></use><use xlink:href="#bbburst-shape-4" width="41.67762176852865" opacity="0.42474356018822546" transform="matrix(0.8551109351463074,0.5184450680575596,-0.5184450680575596,0.8551109351463074,415.9558336642196,-308.9699259304311)" fill="#ffbd9b"></use><use xlink:href="#bbburst-shape-3" width="24.20889406777721" opacity="0.7131297664597516" transform="matrix(0.9990961459310304,-0.04250754269257791,0.04250754269257791,0.9990961459310304,647.3527270540427,-140.17493435440537)" fill="#00a19d"></use><use xlink:href="#bbburst-shape-6" width="28.965969560418642" opacity="0.5084479938240207" transform="matrix(0.7752208954762129,0.6316902430915476,-0.6316902430915476,0.7752208954762129,551.724383680016,-276.88370049273817)" fill="#ffa6d5"></use><use xlink:href="#bbburst-shape-9" width="24.059707557723517" opacity="0.7294699498790828" transform="matrix(0.9627230487001809,0.2704890598553465,-0.2704890598553465,0.9627230487001809,712.2007536166786,-190.60538774052836)" fill="none" stroke="#ffbd9b"></use><use xlink:href="#bbburst-shape-9" width="16.878796736469155" opacity="0.8040429077294372" transform="matrix(0.9352714763826312,0.35393115921751417,-0.35393115921751417,0.9352714763826312,835.2688963986938,-207.77163839329256)" fill="none" stroke="#00a19d"></use><use xlink:href="#bbburst-shape-1" width="9.143345590876745" opacity="0.9025987706458989" transform="matrix(0.7292967733554251,0.6841974980759326,-0.6841974980759326,0.7292967733554251,980.4344824195194,-257.3604568504898)" fill="#ffa6d5"></use><use xlink:href="#bbburst-shape-13" width="32.104980024222364" opacity="0.4894587616665439" transform="matrix(0.8794657559732088,0.4759621666377197,-0.4759621666377197,0.8794657559732088,565.5888323388662,-56.118921256085116)" fill="none" stroke="#ffbd9b"></use><use xlink:href="#bbburst-shape-9" width="41.64436963669536" opacity="0.2475900447457252" transform="matrix(0.983641865164365,0.18013517451061345,-0.18013517451061345,0.983641865164365,782.0305030932208,351.70095581894265)" fill="none" stroke="#00a19d"></use><use xlink:href="#bbburst-shape-9" width="18.837317977357678" opacity="0.8166763086597363" transform="matrix(0.9503402296615624,-0.3112128658760893,0.3112128658760893,0.9503402296615624,543.0820061226585,-241.79126446644733)" fill="none" stroke="#ffbd9b"></use><use xlink:href="#bbburst-shape-12" width="33.386240559779154" opacity="0.427456116466576" transform="matrix(0.8871652267167673,-0.4614519048661376,0.4614519048661376,0.8871652267167673,99.59645112934271,-70.05207429829272)" fill="none" stroke="#00a19d"></use><use xlink:href="#bbburst-shape-3" width="37.72351166850801" opacity="0.3509183002343089" transform="matrix(0.7318239892355186,0.681493689464115,-0.681493689464115,0.7318239892355186,1004.3708845096281,341.1230624806436)" fill="#00a19d"></use><use xlink:href="#bbburst-shape-14" width="51.6550477408585" opacity="0.27190112260379573" transform="matrix(0.9894269977259306,0.1450317764183125,-0.1450317764183125,0.9894269977259306,336.25653859128715,133.39563727730854)" fill="none" stroke="#ffa6d5"></use><use xlink:href="#bbburst-shape-4" width="17.4307814414904" opacity="0.8055602541624165" transform="matrix(0.8746811978397854,0.4846986714914311,-0.4846986714914311,0.8746811978397854,801.0466906282327,-294.8624327660102)" fill="#ffbd9b"></use><use xlink:href="#bbburst-shape-11" width="25.28782208546802" opacity="0.5764086326930917" transform="matrix(0.755950175936463,-0.6546291557069779,0.6546291557069779,0.755950175936463,107.25062391078285,-248.71666091711154)" fill="none" stroke="#ffa6d5"></use><use xlink:href="#bbburst-shape-8" width="21.762793100205208" opacity="0.6795258489922298" transform="matrix(0.9976302061213557,-0.06880386496601265,0.06880386496601265,0.9976302061213557,447.69271865511786,-333.8708007029221)" fill="none" stroke="#ffa6d5"></use><use xlink:href="#bbburst-shape-3" width="10.851176158473011" opacity="0.8106002092710872" transform="matrix(0.7232174605251684,-0.6906203767566712,0.6906203767566712,0.7232174605251684,500.5675117253065,-97.09036295515656)" fill="#2c2891"></use><use xlink:href="#bbburst-shape-2" width="10.675965074394433" opacity="0.9018999773723747" transform="matrix(0.9940158211050801,0.10923620001077157,-0.10923620001077157,0.9940158211050801,818.8066037268991,-302.05818661973467)" fill="#2c2891"></use><use xlink:href="#bbburst-shape-12" width="21.641834095031136" opacity="0.782525665179314" transform="matrix(0.9765092493158019,-0.21547548816672676,0.21547548816672676,0.9765092493158019,510.5900408524151,-287.39875602751493)" fill="none" stroke="#ffa6d5"></use><use xlink:href="#bbburst-shape-11" width="10.675435435809495" opacity="0.8414867856721888" transform="matrix(0.7183358430715895,0.6956964974459975,-0.6956964974459975,0.7183358430715895,1057.8171055449955,-133.51794642481624)" fill="none" stroke="#ffbd9b"></use><use xlink:href="#bbburst-shape-5" width="61.4316512096581" opacity="0.09143116181112798" transform="matrix(0.9576563036879816,0.287913882969669,-0.287913882969669,0.9576563036879816,146.76528222441385,136.67549469671468)" fill="#2c2891"></use><use xlink:href="#bbburst-shape-10" width="12.286022294640626" opacity="0.9268545078895418" transform="matrix(0.9373702787939571,-0.3483345524545896,0.3483345524545896,0.9373702787939571,615.578753742502,-311.1359301598053)" fill="none" stroke="#2c2891"></use><use xlink:href="#bbburst-shape-2" width="11.664615967251619" opacity="0.74577854707995" transform="matrix(0.7507476558503738,-0.6605890986348236,0.6605890986348236,0.7507476558503738,485.6279889917306,-46.373073278969514)" fill="#ffbd9b"></use><use xlink:href="#bbburst-shape-5" width="17.650840511353195" opacity="0.5934602642399974" transform="matrix(0.7074980019525079,-0.7067153438501311,0.7067153438501311,0.7074980019525079,398.7581218614517,113.9559264782502)" fill="#ff5c58"></use><use xlink:href="#bbburst-shape-11" width="15.102785126507545" opacity="0.7676186356881706" transform="matrix(0.9296157541798641,0.36853025599074285,-0.36853025599074285,0.9296157541798641,842.4945862336066,-164.0897016361116)" fill="none" stroke="#2c2891"></use><use xlink:href="#bbburst-shape-10" width="11.103975659041039" opacity="0.8976313624499276" transform="matrix(0.9272276749522136,0.37449811588673204,-0.37449811588673204,0.9272276749522136,886.9817648090373,-288.3915323566911)" fill="none" stroke="#ff5c58"></use><use xlink:href="#bbburst-shape-11" width="37.51405839857947" opacity="0.3974668892967329" transform="matrix(0.7199022339267604,0.6940754811886528,-0.6940754811886528,0.7199022339267604,652.5330337330606,138.39977775390184)" fill="none" stroke="#ffa6d5"></use><use xlink:href="#bbburst-shape-8" width="65.33136558420888" opacity="0.1491281103216" transform="matrix(0.8058349229377919,-0.5921402511009052,0.5921402511009052,0.8058349229377919,-75.45978941303312,287.8517726523263)" fill="none" stroke="#2c2891"></use><use xlink:href="#bbburst-shape-5" width="19.21852768712433" opacity="0.7425281104209396" transform="matrix(0.900814096990458,0.4342049777043854,-0.4342049777043854,0.900814096990458,717.8581620753234,-292.3876121685896)" fill="#2c2891"></use><use xlink:href="#bbburst-shape-11" width="13.218794002671284" opacity="0.8763511611415802" transform="matrix(0.996417536959488,0.08457004221110118,-0.08457004221110118,0.996417536959488,773.3268872887368,-288.02751908112964)" fill="none" stroke="#ffa6d5"></use><use xlink:href="#bbburst-shape-11" width="67.11813799552807" opacity="0.1023923598588019" transform="matrix(0.9771479513877982,0.2125602999118817,-0.2125602999118817,0.9771479513877982,321.52545795070523,324.9405514955453)" fill="none" stroke="#ff5c58"></use><use xlink:href="#bbburst-shape-4" width="29.417438676209734" opacity="0.6739080318064163" transform="matrix(0.998484741552295,0.05502927300307154,-0.05502927300307154,0.998484741552295,537.706597929817,-216.757603201674)" fill="#00a19d"></use><use xlink:href="#bbburst-shape-13" width="35.059594129633055" opacity="0.31906241490755893" transform="matrix(0.9969781007677637,0.07768311650225446,-0.07768311650225446,0.9969781007677637,647.2300107287231,260.1485977211363)" fill="none" stroke="#ffa6d5"></use><use xlink:href="#bbburst-shape-3" width="44.126035703218534" opacity="0.24734324935631002" transform="matrix(0.8041212569336419,0.5944653094567082,-0.5944653094567082,0.8041212569336419,268.6119041728614,-289.6502846656833)" fill="#2c2891"></use><use xlink:href="#bbburst-shape-6" width="9.274515942647412" opacity="0.9622672540062853" transform="matrix(0.8345126810597873,-0.5509887341410945,0.5509887341410945,0.8345126810597873,540.0782691788461,-318.9057511455906)" fill="#ffbd9b"></use><use xlink:href="#bbburst-shape-4" width="53.023043806649795" opacity="0.2298874430695219" transform="matrix(0.9181534701432246,-0.39622494275847264,0.39622494275847264,0.9181534701432246,-116.03938058875228,-121.23049624310815)" fill="#ffa6d5"></use><use xlink:href="#bbburst-shape-9" width="26.40192899650387" opacity="0.6083005641613666" transform="matrix(0.9985852976331842,-0.05317333308007804,0.05317333308007804,0.9985852976331842,390.68581413730766,-285.27195019378644)" fill="none" stroke="#ffa6d5"></use><use xlink:href="#bbburst-shape-11" width="35.80623624071343" opacity="0.5309829667596023" transform="matrix(0.932117145271686,0.36215691004116235,-0.36215691004116235,0.932117145271686,688.3373193429968,23.196753930526427)" fill="none" stroke="#00a19d"></use><use xlink:href="#bbburst-shape-5" width="19.097949844332884" opacity="0.7856691541116507" transform="matrix(0.7999529890615469,0.6000626761359988,-0.6000626761359988,0.7999529890615469,869.4706046250658,-186.44103674902289)" fill="#2c2891"></use><use xlink:href="#bbburst-shape-4" width="57.276190358957365" opacity="0.17884114642998183" transform="matrix(0.9693857830077032,0.2455426718567311,-0.2455426718567311,0.9693857830077032,504.9308726354319,340.58920133947873)" fill="#ffa6d5"></use><use xlink:href="#bbburst-shape-6" width="29.00752947253184" opacity="0.43781650918649806" transform="matrix(0.8321576887537954,-0.5545390708037996,0.5545390708037996,0.8321576887537954,517.1059701891919,235.22328087651204)" fill="#00a19d"></use><use xlink:href="#bbburst-shape-11" width="16.308120655618453" opacity="0.6289465948306179" transform="matrix(0.9999459702036629,0.010395031190675927,-0.010395031190675927,0.9999459702036629,731.2567891994589,-34.913073957430754)" fill="none" stroke="#00a19d"></use><use xlink:href="#bbburst-shape-3" width="38.424828353197825" opacity="0.41176260928486186" transform="matrix(0.9395112472747321,0.3425180524356011,-0.3425180524356011,0.9395112472747321,367.9721572737599,-176.05993869849067)" fill="#2c2891"></use><use xlink:href="#bbburst-shape-4" width="8.896119675585854" opacity="0.982041199285407" transform="matrix(0.943048661205555,0.33265480997335717,-0.33265480997335717,0.943048661205555,917.4407502205657,-364.8344974164587)" fill="#ffbd9b"></use><use xlink:href="#bbburst-shape-6" width="22.36726827488547" opacity="0.5043506378274307" transform="matrix(0.864928574933152,0.5018949693552496,-0.5018949693552496,0.864928574933152,943.823033542649,141.8066986505284)" fill="#ffa6d5"></use><use xlink:href="#bbburst-shape-2" width="17.398085175197238" opacity="0.7625549947251095" transform="matrix(0.9130280700228788,0.4078967312326703,-0.4078967312326703,0.9130280700228788,817.7726702925468,-175.12718853020823)" fill="#ffa6d5"></use><use xlink:href="#bbburst-shape-13" width="21.171246265777757" opacity="0.677328373289767" transform="matrix(0.9753125206424913,-0.22082909019870975,0.22082909019870975,0.9753125206424913,401.88374408190316,-267.6188657755656)" fill="none" stroke="#2c2891"></use><use xlink:href="#bbburst-shape-13" width="61.19968626585933" opacity="0.2736424743460124" transform="matrix(0.9835217852608333,-0.18078965102389916,0.18078965102389916,0.9835217852608333,298.2254241832221,218.83947884972457)" fill="none" stroke="#00a19d"></use><use xlink:href="#bbburst-shape-5" width="36.843781681804124" opacity="0.5887539988463604" transform="matrix(0.8877940156973998,0.46024100826836917,-0.46024100826836917,0.8877940156973998,649.5576087668369,-103.05389229296901)" fill="#ffbd9b"></use><use xlink:href="#bbburst-shape-8" width="62.67037784958913" opacity="0.24182025830983522" transform="matrix(0.99682317559475,-0.07964644748636505,0.07964644748636505,0.99682317559475,114.62335476888359,36.895916599224165)" fill="none" stroke="#ff5c58"></use><use xlink:href="#bbburst-shape-5" width="37.38605886702208" opacity="0.5236957441890723" transform="matrix(0.9713432715962386,-0.23768098099073048,0.23768098099073048,0.9713432715962386,230.41450939027948,-247.6934746986351)" fill="#ff5c58"></use><use xlink:href="#bbburst-shape-9" width="37.266759137259236" opacity="0.4177809502655827" transform="matrix(0.9965124384268426,-0.08344435307789477,0.08344435307789477,0.9965124384268426,596.1107867694062,164.74820620469876)" fill="none" stroke="#00a19d"></use><use xlink:href="#bbburst-shape-9" width="50.58653962102131" opacity="0.17445606702364036" transform="matrix(0.9948434524904123,-0.10142240894869688,0.10142240894869688,0.9948434524904123,-7.328560332377442,-32.93275867063221)" fill="none" stroke="#00a19d"></use><use xlink:href="#bbburst-shape-3" width="26.20362199248437" opacity="0.5655658201353864" transform="matrix(0.8875643709493016,-0.4606837173390985,0.4606837173390985,0.8875643709493016,329.46103694345425,-12.2594016589195)" fill="#ff5c58"></use><use xlink:href="#bbburst-shape-9" width="43.64184667820755" opacity="0.45918645764640087" transform="matrix(0.9996947231413132,-0.024707499335488086,0.024707499335488086,0.9996947231413132,545.3645456457573,93.0953469724094)" fill="none" stroke="#2c2891"></use><use xlink:href="#bbburst-shape-14" width="7.903611858523521" opacity="0.9070432692065045" transform="matrix(0.8924749863941981,-0.4510968838959941,0.4510968838959941,0.8924749863941981,523.7719427699672,-343.8968777234038)" fill="none" stroke="#00a19d"></use><use xlink:href="#bbburst-shape-11" width="29.137894312221235" opacity="0.44912460489643213" transform="matrix(0.8537523976071077,0.5206792137008305,-0.5206792137008305,0.8537523976071077,458.5738210081766,-228.55315833940023)" fill="none" stroke="#ffa6d5"></use><use xlink:href="#bbburst-shape-12" width="16.116014062323057" opacity="0.776525333671915" transform="matrix(0.9937189923496825,0.11190426374151957,-0.11190426374151957,0.9937189923496825,820.0916039477406,-175.5659902503243)" fill="none" stroke="#ff5c58"></use><use xlink:href="#bbburst-shape-13" width="16.186534510174468" opacity="0.8089706709654725" transform="matrix(0.8307265764429302,-0.5566806581797219,0.5566806581797219,0.8307265764429302,380.46833470202625,-309.33374338827264)" fill="none" stroke="#2c2891"></use><use xlink:href="#bbburst-shape-13" width="35.70903896106979" opacity="0.6127218928417044" transform="matrix(0.9112106743938088,-0.41194065940470154,0.41194065940470154,0.9112106743938088,278.4310618807841,-172.6621952946543)" fill="none" stroke="#2c2891"></use><use xlink:href="#bbburst-shape-10" width="16.292774806553965" opacity="0.7853922438598278" transform="matrix(0.8195027565465524,-0.5730752411443039,0.5730752411443039,0.8195027565465524,510.04102664552335,-115.44347115596759)" fill="none" stroke="#2c2891"></use><use xlink:href="#bbburst-shape-7" width="37.68179449131121" opacity="0.5001899286371478" transform="matrix(0.9724689844098388,0.23303234616871707,-0.23303234616871707,0.9724689844098388,530.1601849633804,-31.400288890303273)" fill="#00a19d"></use><use xlink:href="#bbburst-shape-2" width="22.190650368385683" opacity="0.7669234999244284" transform="matrix(0.8809987173452867,-0.47311865323189234,0.47311865323189234,0.8809987173452867,369.2744916255197,-321.92323958207055)" fill="#00a19d"></use><use xlink:href="#bbburst-shape-8" width="19.876916196164508" opacity="0.73383274027069" transform="matrix(0.837344558865629,0.5466754885104372,-0.5466754885104372,0.837344558865629,799.584925155727,-177.8168939680439)" fill="none" stroke="#00a19d"></use><use xlink:href="#bbburst-shape-3" width="21.90664433629284" opacity="0.6487043595438367" transform="matrix(0.8733443540409302,-0.48710331477503854,0.48710331477503854,0.8733443540409302,438.71863672694263,-29.60184637160779)" fill="#2c2891"></use><use xlink:href="#bbburst-shape-12" width="0.0003750038811632749" opacity="0.9999985809187231" transform="matrix(0.9769412803334154,-0.21350816092249728,0.21350816092249728,0.9769412803334154,714.595193416826,-390.7760636777306)" fill="none" stroke="#ffbd9b"></use><use xlink:href="#bbburst-shape-10" width="10.720966995527291" opacity="0.850683977059848" transform="matrix(0.8141545576936565,-0.5806482206867137,0.5806482206867137,0.8141545576936565,517.1962079647402,-180.55397253468107)" fill="none" stroke="#ffbd9b"></use><use xlink:href="#bbburst-shape-11" width="20.39454006069653" opacity="0.6398493410249093" transform="matrix(0.8082234224948145,-0.5888759626022857,0.5888759626022857,0.8082234224948145,197.16454761634057,-287.37315344885405)" fill="none" stroke="#00a19d"></use><use xlink:href="#bbburst-shape-13" width="48.74035430659789" opacity="0.3332892403922135" transform="matrix(0.7918564554840831,0.6107072571274917,-0.6107072571274917,0.7918564554840831,751.6244182966173,276.4673783833599)" fill="none" stroke="#ffbd9b"></use><use xlink:href="#bbburst-shape-6" width="15.982352216628898" opacity="0.8450431119529227" transform="matrix(0.9970018545559574,-0.07737765835163052,0.07737765835163052,0.9970018545559574,608.5865248557842,-370.67121330093926)" fill="#ffa6d5"></use><use xlink:href="#bbburst-shape-3" width="18.580109836580178" opacity="0.8319467856122597" transform="matrix(0.9283149197930023,0.3717948489284268,-0.3717948489284268,0.9283149197930023,796.3435170026082,-287.64757630556005)" fill="#00a19d"></use><use xlink:href="#bbburst-shape-8" width="19.607869500921563" opacity="0.8620685786605278" transform="matrix(0.9829871569886638,-0.18367430194598286,0.18367430194598286,0.9829871569886638,618.841777308397,-294.3837649470821)" fill="none" stroke="#2c2891"></use><use xlink:href="#bbburst-shape-4" width="12.86619571011552" opacity="0.7381606867292076" transform="matrix(0.9778608731449022,0.20925609375186544,-0.20925609375186544,0.9778608731449022,861.3694889029659,-131.13153776833707)" fill="#00a19d"></use><use xlink:href="#bbburst-shape-10" width="19.78836681241444" opacity="0.7303196649231092" transform="matrix(0.9994234001504997,-0.03395389862172359,0.03395389862172359,0.9994234001504997,536.6295623544194,-276.2453872759255)" fill="none" stroke="#ffbd9b"></use><use xlink:href="#bbburst-shape-8" width="56.866569609802916" opacity="-0.012044120559476346" transform="matrix(0.9701212764673641,0.24262050396727003,-0.24262050396727003,0.9701212764673641,153.8875337534053,320.7225866282864)" fill="none" stroke="#2c2891"></use><use xlink:href="#bbburst-shape-2" width="30.961653229661415" opacity="0.6253853890872569" transform="matrix(0.8841636742470367,0.46717726522379066,-0.46717726522379066,0.8841636742470367,757.9384026523121,-54.275312296381856)" fill="#ffa6d5"></use><use xlink:href="#bbburst-shape-14" width="17.194632658761993" opacity="0.8431613491257337" transform="matrix(0.9999933898243533,-0.003635974092174621,0.003635974092174621,0.9999933898243533,707.589307350253,-266.46876342000155)" fill="none" stroke="#ffa6d5"></use><use xlink:href="#bbburst-shape-9" width="18.371292657707972" opacity="0.7040313054013039" transform="matrix(0.9894590434229225,-0.14481298763783312,0.14481298763783312,0.9894590434229225,651.5240782232768,-110.03360434806257)" fill="none" stroke="#00a19d"></use><use xlink:href="#bbburst-shape-2" width="34.278057299743374" opacity="0.23742765590475423" transform="matrix(0.7648098420512103,-0.6442560868952677,0.6442560868952677,0.7648098420512103,-220.71403877460318,-156.5046113405262)" fill="#00a19d"></use><use xlink:href="#bbburst-shape-8" width="9.500102444619154" opacity="0.9289723953875794" transform="matrix(0.907058059400016,-0.42100555444967347,0.42100555444967347,0.907058059400016,614.2430374410292,-291.0042450764788)" fill="none" stroke="#00a19d"></use><use xlink:href="#bbburst-shape-1" width="19.17367157588206" opacity="0.71417335244303" transform="matrix(0.925610291154962,0.37847798999152726,-0.37847798999152726,0.925610291154962,657.5432783300898,-351.6710890957262)" fill="#ff5c58"></use><use xlink:href="#bbburst-shape-3" width="28.040555147995715" opacity="0.5089775457430672" transform="matrix(0.9886264506197081,-0.15039195834577662,0.15039195834577662,0.9886264506197081,591.3815363792628,78.91778175124193)" fill="#2c2891"></use><use xlink:href="#bbburst-shape-12" width="34.51410168026613" opacity="0.5320307111040489" transform="matrix(0.8260107576009528,0.5636543518216638,-0.5636543518216638,0.8260107576009528,592.0568704949029,-132.14767206462648)" fill="none" stroke="#ffa6d5"></use><use xlink:href="#bbburst-shape-13" width="37.64378643095356" opacity="0.2206233184298544" transform="matrix(0.9043563615737273,-0.42677812886924005,0.42677812886924005,0.9043563615737273,391.4381156767041,393.72758423462943)" fill="none" stroke="#ffbd9b"></use><use xlink:href="#bbburst-shape-4" width="15.391362947595999" opacity="0.8691871850633082" transform="matrix(0.765373983805866,-0.6435857867550666,0.6435857867550666,0.765373983805866,420.2253624776519,-241.61050144041354)" fill="#ff5c58"></use><use xlink:href="#bbburst-shape-14" width="10.580322408325072" opacity="0.8739793568965826" transform="matrix(0.8701905757807721,-0.4927152948938448,0.4927152948938448,0.8701905757807721,582.3217733125821,-220.45589246062582)" fill="none" stroke="#2c2891"></use><use xlink:href="#bbburst-shape-10" width="13.285521564168517" opacity="0.8174264922172646" transform="matrix(0.9834901335041721,-0.18096175645684281,0.18096175645684281,0.9834901335041721,661.954442428117,-219.46009421733737)" fill="none" stroke="#ffa6d5"></use><use xlink:href="#bbburst-shape-8" width="22.774224485554434" opacity="0.6515268219403856" transform="matrix(0.9369936203943727,0.349346468910516,-0.349346468910516,0.9369936203943727,819.9374379242988,-47.831584522044636)" fill="none" stroke="#2c2891"></use><use xlink:href="#bbburst-shape-7" width="17.739935471125513" opacity="0.6763678398331239" transform="matrix(0.8268709564994102,0.5623916973940408,-0.5623916973940408,0.8268709564994102,959.2035912787138,-17.4524197480535)" fill="#2c2891"></use><use xlink:href="#bbburst-shape-8" width="25.603872844184508" opacity="0.5753775789885143" transform="matrix(0.8418695496238568,-0.5396810737983355,0.5396810737983355,0.8418695496238568,404.5769543969767,59.80183149706295)" fill="none" stroke="#ffbd9b"></use><use xlink:href="#bbburst-shape-14" width="10.084742815657332" opacity="0.9035998113213514" transform="matrix(0.9099776284111647,0.4146573474462888,-0.4146573474462888,0.9099776284111647,886.451466544801,-305.2800800842438)" fill="none" stroke="#00a19d"></use><use xlink:href="#bbburst-shape-9" width="40.46231794807537" opacity="0.41881175189555875" transform="matrix(0.9771755026674246,0.21243360606708658,-0.21243360606708658,0.9771755026674246,544.2830637457303,89.07791391018759)" fill="none" stroke="#2c2891"></use><use xlink:href="#bbburst-shape-4" width="43.28243332485653" opacity="0.3385140775626253" transform="matrix(0.9992096595608372,0.039749921261755694,-0.039749921261755694,0.9992096595608372,134.8954514351079,-347.7485360470049)" fill="#ffa6d5"></use><use xlink:href="#bbburst-shape-14" width="10.313819920327283" opacity="0.9566039900266211" transform="matrix(0.9801478544636766,-0.19826795855672552,0.19826795855672552,0.9801478544636766,701.0780098218692,-350.14356494233954)" fill="none" stroke="#00a19d"></use><use xlink:href="#bbburst-shape-5" width="15.797520702553001" opacity="0.8761250031527064" transform="matrix(0.8159631206262976,-0.5781039575870365,0.5781039575870365,0.8159631206262976,439.90359050211055,-302.8223471193751)" fill="#ffa6d5"></use><use xlink:href="#bbburst-shape-12" width="16.23423015293842" opacity="0.660318763768509" transform="matrix(0.9769368503845207,-0.21352842986537543,0.21352842986537543,0.9769368503845207,687.2487659000377,-49.94366229828756)" fill="none" stroke="#00a19d"></use><use xlink:href="#bbburst-shape-6" width="9.301458328427238" opacity="0.9404189146366845" transform="matrix(0.741402888932408,0.6710601733694822,-0.6710601733694822,0.741402888932408,1018.0561162623094,-262.9609321757945)" fill="#00a19d"></use><use xlink:href="#bbburst-shape-13" width="9.865409979511645" opacity="0.9342412578868141" transform="matrix(0.9009162014088498,0.4339930852433583,-0.4339930852433583,0.9009162014088498,905.2960315547369,-346.80806902644946)" fill="none" stroke="#ffbd9b"></use></svg>