<svg  xmlns="http://www.w3.org/2000/svg" xmlns:xlink="http://www.w3.org/1999/xlink" width="886" height="300" viewBox="0 0 910 324"><path transform="translate(0 100)" d="M47.25,-73.75Q51,-73.75 51,-66.875L51,-57.125Q60.75,-57.375 62.125,-57.375Q76.75,-57.375 79.875,-51.75Q82.5,-48.125 82.5,-40.875Q82.5,-22.25 79.625,-19.625Q78,-18.5 77.125,-18.5L76.375,-18.5Q73.375,-18.875 73.375,-20.25Q63,-19.375 50.5,-18.625Q50.25,-16.375 50.25,-15.25Q50.25,-8.625 50.5,6.375Q49.75,10.5 46.375,10.5Q42.125,10.5 42.125,4.75L42.125,-18.5Q34.375,-18.25 30.875,-18.25Q22.5,-18.25 19.5,-18.875Q18.25,-18.25 17.125,-18.25L16.875,-18.25Q12.75,-18.25 12.75,-28.125L12.75,-35.875Q12.75,-57.875 15.125,-57.875Q15.125,-58.375 16.875,-58.75L17.875,-58.75Q21.125,-58.75 21.625,-54.125L21.625,-54Q36.375,-56.375 42.625,-56.375L42.875,-56.875Q42.875,-72.875 45,-72.875Q45,-73.5 47.25,-73.75ZM50.75,-48.375Q50.75,-40.75 50.5,-27.5Q56.5,-27.75 73,-28.875Q73.375,-35.125 73.375,-39.5L73.375,-43Q73.375,-48.125 69.5,-48.125Q67.25,-48.75 60.25,-48.75L51.25,-48.75Q50.75,-48.75 50.75,-48.375ZM21.5,-46.875Q22,-36.25 22,-26.625L22.25,-26.125Q25.5,-26.375 42.125,-27L42.625,-48.375Q34,-47.875 21.5,-46.875Z"></path><path transform="translate(93 100)" d="M46,-75.75L46.5,-75.75Q49.25,-75.75 55.125,-70.625Q55.875,-68.5 55.875,-68Q54.75,-63.625 51.75,-63.625L50.125,-63.625Q46.125,-63.625 42,-70.625L42,-71.75Q42.625,-75.75 46,-75.75ZM83.375,-61Q86.125,-61 87,-57L87,-56.75Q87,-52.75 82.25,-52.75L75.375,-52.75Q73.375,-52.75 73.375,-51Q70.25,-37.125 58.25,-22Q58,-22 56.75,-20.375L56.75,-19.875Q74.125,-7.5 86,-3.75Q88,-1.75 88,-0.125L88,0.375Q87.125,4.875 83.375,4.875Q69.625,1 50.375,-13.5L50.125,-13.5Q30.5,2.875 19.625,4.875Q14.625,4.125 14.625,0.375L14.625,0.125Q14.625,-3.125 20.375,-4.625Q30,-9.125 39.625,-16.25Q43.25,-19.375 43.25,-19.625Q28.5,-33.375 25.375,-39.625Q23.875,-41 23.5,-43.25L23.5,-43.625Q23.75,-47.25 26.75,-47.25Q29.375,-47.25 33.625,-41.25Q47.375,-27.25 49.625,-25.875Q61.375,-38.875 65.875,-52L65.875,-52.5Q43.375,-52.25 31.5,-52.25L28.875,-52.25Q13.25,-52.25 13.25,-53.875Q12.5,-55.125 12.5,-55.875L12.5,-56.25Q12.5,-60.125 19.875,-60.125Q41.125,-61 83.375,-61Z"></path><path transform="translate(194 100)" d="M61.75,-65.125Q82,-65.125 85.625,-57Q88.25,-51.625 88.25,-39.25Q87.25,9.25 85.875,9.25Q84.375,11.125 82.5,11.125Q78.375,10.25 78.375,7.25Q79.875,-21.875 79.875,-36.625L79.875,-41.625Q79.875,-55.75 74.5,-55.75Q71,-57.125 62.125,-57.125L58.625,-57.125Q49.375,-57.125 22.125,-55.5Q21.25,5.875 20.25,5.875Q18.875,7.75 16.75,7.75L16.625,7.75Q12.5,7.75 12.5,2.5Q13.25,-63.125 15.5,-63.125Q16.625,-64.875 18.75,-64.875Q20.625,-64.875 21.75,-62.75Q43.625,-65.125 61.75,-65.125ZM45,-48.875Q47.875,-48.875 48.625,-44.75Q48.625,-42.75 42.875,-30L42.875,-28.25Q51.25,-18.25 51.25,-15.375Q50.25,-11.5 47.375,-11.5Q44,-11.5 39,-19.25L38,-20.375L38,-20.375Q34.125,-11.125 30.375,-6.625Q28.375,-5.875 27.5,-5.875L27.125,-5.875Q24.625,-5.875 23.75,-9.375Q24,-11.75 32.5,-27.75Q24.5,-38.375 24.5,-40.25Q24.5,-43.125 28.25,-43.625Q30.5,-43.625 36.125,-36.625Q36.75,-36.75 41.625,-47Q43,-48.875 45,-48.875ZM71.75,-47.375Q74.375,-47.375 75.125,-43.625L75.125,-43.375Q75.125,-41.5 68.25,-26.375Q76.5,-15.375 76.5,-12.5Q76.5,-9.25 72,-8.5Q69.25,-8.5 64,-17L63.375,-17Q58.375,-5.125 54.75,-5.125L54.5,-5.125Q51.875,-5.125 51.125,-8.625Q51.125,-12 58.25,-25.125Q50.5,-36.875 50.5,-38.375L50.5,-38.5Q50.5,-41.625 54.25,-41.625Q56.25,-41.625 62.5,-33.75L62.5,-33.75Q68.25,-47.125 70.25,-47.125L71.75,-47.375Z"></path><path transform="translate(294 100)" d="M46.5,-78.25Q58.5,-75.125 58.5,-70.75Q58.5,-67.5 54.125,-66.875Q49.125,-66.875 43.125,-72Q42.625,-73.625 42.625,-74.625Q42.625,-77.375 46.5,-78.25ZM62.125,-66L65.75,-66Q88.25,-66 88.25,-55L88.25,-53.75Q86.5,-43.5 81.875,-43.5Q77.75,-44.375 77.75,-48Q79.875,-53.5 79.875,-55.25L79.875,-55.375Q77.375,-58.125 64.375,-58.125L63.875,-58.125Q50.125,-58.125 22.625,-55.25L22.625,-48.125Q22.625,-43.75 18.25,-43Q14.375,-43.875 14.375,-48.875Q14.125,-51.125 14.125,-55.25L14.125,-59.625Q14.125,-65.5 18.5,-65.5Q20.625,-65.5 22.125,-62.625Q47,-66 62.125,-66ZM55.625,-50.625L58.75,-50.625Q69.5,-50.625 69.5,-43.25Q69.5,-39.375 57.75,-28.25L57.75,-28.375Q69.75,-28.875 81.375,-29.125Q86.25,-28.75 86.25,-24.25Q86.25,-21.375 82.25,-20.625Q81.25,-20.375 79.5,-20.375L71.375,-20.375Q66.75,-20.375 57.75,-20.125Q58.5,-13.375 58.5,-8.625Q58.5,5 53,7.875Q49.875,9.125 48,9.125L46.25,9.125Q32.375,7.75 32.375,2Q32.875,-2.125 36.5,-2.125L37.125,-2.125Q46.375,0.875 48.75,0.875Q50.625,0.875 50.625,-7L50.625,-9.375Q50.625,-14.625 50,-19.625Q28.5,-18.625 21.875,-18.625Q18.875,-18.625 17.75,-23Q17.75,-27.25 26.375,-27.25Q49.5,-27.875 49.5,-28.375Q49.5,-31.625 59.5,-41.75L60,-42.375Q57.875,-42.5 56.5,-42.5Q52.5,-42.5 34.375,-41.625Q31.5,-41.625 31,-45.75Q31,-49 38,-49.625Q49.125,-50.625 55.625,-50.625Z"></path><path transform="translate(395 100)" d="M68.875,-77.375Q72.5,-76.625 72.5,-73.25L72.625,-71Q72.875,-63.5 73.25,-46.875Q77.25,-47 92.875,-48.5Q98,-47.875 98.125,-43.625Q97.25,-39.375 92.75,-39.25Q88,-39.125 73.25,-38L73,-37.5Q73.5,-3 73.75,5.25Q73.375,10.5 70.25,10.625L69,10.625Q65.875,10.75 65.125,6Q64.875,-0.75 64.25,-37.25L55.125,-36.875Q42.125,-36.5 42,-40L41.875,-41Q41.75,-45 49.5,-45.25L64.25,-46L64.5,-46.5Q64.125,-75.75 65.75,-75.875Q67.375,-77.375 68.875,-77.375ZM26.5,-62L27.25,-62Q39,-57.875 39,-53.5L39,-53Q38.375,-48.75 34.75,-48.75L34,-48.75Q30.625,-48.75 23,-55.5Q22.5,-56.375 22.5,-57.5L22.5,-58Q23,-62 26.5,-62ZM27.25,-43.75Q33.125,-43.75 35.5,-37.75Q36.25,-35.75 36.25,-33.5L36.25,-30Q36.25,-25.875 34.5,-11.25Q41,-16.5 41.75,-16.5L43,-16.75Q46.75,-16.75 47.25,-11.75Q47.25,-7.375 34,-1.25Q32.25,-1 31.25,-1Q25.75,-3 25.75,-6.75Q25.5,-7.125 25.5,-8.5L25.5,-10L27.25,-31.25L27.25,-35L26.5,-35Q23.375,-35 15.5,-32.75Q12.5,-33.25 12.5,-36.5Q12.5,-41.5 27.25,-43.75Z"></path><path transform="translate(506 100)" d="M28,-76.875L28.5,-76.875Q31.75,-76.875 32.25,-68.625Q34,-56 35,-53.625Q54.125,-57.375 55.5,-57.375Q60.25,-56.875 60.25,-52.875Q60.25,-49.25 46.5,-47.625Q45.875,-47.375 36.25,-45.375L40.125,-28.625Q41.125,-28.875 50.75,-40.625Q52.375,-41.125 53,-41.125Q55.75,-41.125 56.5,-37.125Q54.625,-31.625 43.5,-18.125L43.5,-17.875Q48.375,-3.375 52.75,-1.625Q54.625,-1.625 58.5,-8.875Q60.125,-10.375 61.75,-10.375Q65.375,-10.375 66,-5.875Q60.875,6.875 53,6.875L51.75,6.875Q44.25,6.875 37.5,-8.875L37,-10.625Q25.875,1.125 22.25,1.125Q18.25,0.5 18.25,-2.875Q18.25,-5.75 28.5,-14.625L33.5,-20.125Q30.75,-30.625 28,-43.875Q15.375,-41.625 14.25,-41.625Q10,-42.25 10,-45.875L10,-46.125Q10,-50.375 22.5,-51.125L26.5,-52.125Q24.25,-68.125 24.25,-73.375Q24.25,-76.375 28,-76.875ZM42.25,-72.875L42.75,-72.875Q45.625,-72.875 52,-66.875Q52.75,-64.75 52.75,-64.125Q52.75,-61.375 48.5,-60.375L48.25,-60.375Q45.75,-60.375 39.5,-66.375Q38.75,-68.25 38.75,-69.125Q38.75,-72.125 42.25,-72.875ZM88.25,-65.625Q92.5,-65.625 92.5,-55.125Q92.75,-47.875 92.75,-39.625L92.75,-29.375Q92.75,-6.25 89.75,-3.375Q86.625,0.875 82,0.875L80.25,0.875Q75.125,0.875 69.5,-2.875Q68,-4.625 68,-6.375L68,-6.625Q68.5,-10.625 72,-10.625Q72.625,-10.625 78.5,-8.375Q79.5,-7.875 81.25,-7.875L82,-7.875Q84.25,-7.875 84.25,-43.625L84.25,-60.875Q84.25,-65.625 88.25,-65.625ZM70.75,-55.375L71,-55.375Q75,-55.375 75,-46.875Q75.25,-40 75.25,-31.875Q75.25,-22.375 70.75,-22.375Q66.25,-22.375 66.25,-33.875L66.25,-37.875L66,-37.875Q66,-38.125 66.25,-38.125L66.5,-39.375L66.5,-45.375Q66.5,-54.875 69,-54.875Q69,-55.25 70.75,-55.375Z"></path><path transform="translate(0 200)" d="M45.5,-66.125Q52.25,-66.125 52.25,-61.125Q52.25,-57.625 46.75,-56.875Q42.375,-57.125 39.75,-57.125Q38.625,-57.125 34,-56.875Q33.25,-0.625 32.5,-0.625Q30.875,1.125 29,1.125L28.25,1.125Q25.375,1.125 24.5,-3.375L24.5,-7.875Q24.5,-8.125 24.25,-8.125Q24.25,-8.375 24.5,-8.375L24.75,-9.625L24.75,-10.625Q24.75,-31 26.25,-56.875L23.25,-56.625L23,-56.625Q18,-56.625 10.5,-56.375Q6.25,-57 6.25,-60.625L6.25,-60.875Q6.25,-63.875 11.25,-64.875L45.5,-66.125Z"></path><path transform="translate(55 200)" d="M11.5,-65Q15.5,-65 15.5,-57.25L15.5,-54.75Q15.25,-42.875 15.25,-41.5L16.5,-41.5Q24.625,-45.75 30.75,-45.75Q42.5,-45.75 42.5,-26.5Q42,-1.25 40.5,-1.25Q38.625,-0 37.25,-0Q34.375,-0 33,-3.75Q33.75,-15.375 33.75,-26.5L33.75,-29Q33.75,-37.75 30.75,-37.75L30,-37.75Q24,-37.625 15.25,-32.75Q15,-30.25 15,-29Q15,-2.5 13.5,-2.5Q12.125,-1 10,-1Q6.625,-1 6.25,-6.5Q7.25,-64 9.25,-64Q10.625,-65 11.5,-65Z"></path><path transform="translate(101 200)" d="M28.875,-48.5Q40.125,-48.5 46.125,-35.5Q46.5,-33.25 46.5,-31.5Q46.5,-22.75 30.25,-20.625Q27.125,-20.125 23.5,-20.125L22.5,-20.125L21.625,-19.875L21.625,-20.125Q20.875,-20.125 20.875,-19.875L20,-20.125L16.625,-20.125L14.625,-20.5Q17.375,-9.75 27.875,-9.75Q34.5,-9.75 41.875,-14.5L43,-14.75Q47.25,-13.875 47.25,-10Q47.25,-3.5 28.125,-0.5L27.25,-0.5Q12.125,-1.25 7.125,-15Q6.25,-19.375 6.25,-21.625Q6.25,-34.5 17.75,-44.75Q23.875,-48.5 28.875,-48.5ZM15.5,-28.125Q30.375,-28.125 39,-31.875L39,-32.75Q39,-36.375 32.75,-39.75Q31.875,-40.375 29.125,-40.5Q20.375,-40.5 15.5,-28.125Z"></path><path transform="translate(155 200)" d=""></path><path transform="translate(188 200)" d="M11.5,-65.25L12.5,-65.25Q13.75,-65.25 15.5,-63.25Q20.125,-64.25 26,-64.25Q45.75,-64.25 51.25,-54Q52.5,-51 52.75,-47.25Q52.75,-38 41.75,-31.25Q30.5,-25.5 16,-25.5Q16.5,-25.25 15.25,-25.25L15.25,-8.25Q15.25,-8 15,-8L15.25,-7.5Q15.25,-7.25 15.5,-7.25Q15.5,-7 15.25,-7Q15.25,0.25 10.75,0.25Q6.75,0.25 6.5,-4.75L6.5,-8.5L6.25,-9.75L6.5,-9.75L6.25,-10.25Q6.25,-10.5 6,-10.5Q6,-10.75 6.25,-10.75L6.5,-12L6.5,-14.75Q7.25,-63.75 8.75,-63.75Q10.5,-65.25 11.5,-65.25ZM15.75,-56.5Q15.5,-47.125 15.5,-42.25L15.5,-38.5Q15.5,-37.25 15.25,-34.25Q15.5,-34.25 15.5,-34L16,-34.25Q31.625,-34.25 41,-41Q44.25,-44 44.25,-47.75L44.25,-48.5Q44.25,-54.25 31.75,-56.25Q27.125,-56.75 23.5,-56.75L17.5,-56.75L15.75,-56.5Z"></path><path transform="translate(236 200)" d="M11,-48.375Q14.125,-48.375 14.75,-44.125L14.75,-38.375L15.875,-38.375Q29.75,-45.875 34.25,-45.875L35.75,-45.875Q38.625,-45.875 39.25,-42.125L39.25,-41.875Q39.25,-38.375 29.75,-36.625Q14.75,-30.5 14.75,-26.625L14.75,-4.625Q14.75,0.875 10.5,0.875Q6.25,0.875 6.25,-4.875L6.25,-14.625Q6.25,-46.875 7.75,-46.875Q9.25,-48.375 11,-48.375Z"></path><path transform="translate(275 200)" d="M24.875,-47.75Q37.25,-48.25 42.75,-32.875Q43.625,-28.625 43.75,-25.75Q44.25,-9.375 30.75,-2.5Q27.75,-1.125 25,-1L24,-1Q12.125,-0.625 7.125,-13.625Q5.75,-17.375 5.5,-22.625Q5.125,-34 10.375,-40.75Q12.75,-41.75 14.75,-44Q19.5,-47.625 24.875,-47.75ZM14.375,-25.375L14.5,-24.125Q14.875,-12.375 22.25,-10.5L25.25,-10.5Q30.625,-10.75 33.875,-19.875Q34.5,-25 34.5,-25.625Q34.125,-36.25 26.5,-38.875Q25.125,-38.875 24.25,-39Q19,-38.875 14.875,-33.25Q14.375,-28.375 14.375,-25.375Z"></path><path transform="translate(326 200)" d="M16.25,-64.875L17,-64.875Q21.125,-64.875 22,-59.625Q21.125,-54.375 16.75,-54.375L16.5,-54.375Q11.25,-55.375 11.25,-59.625Q12.375,-64.875 16.25,-64.875ZM17,-49.125Q21.25,-49.125 21.25,-38.875L21.25,-6.375Q21.25,11.625 17.25,12.875Q15.125,14.875 12.75,14.875L10.75,14.875Q0,13.25 0,6.875Q0,4.25 3.75,3.375L4,3.375Q4.875,3.375 10.75,6.125L12,6.125Q13,6.125 13,-39.875L13,-42.375Q13,-49.125 17,-49.125Z"></path><path transform="translate(354 200)" d="M28.875,-48.5Q40.125,-48.5 46.125,-35.5Q46.5,-33.25 46.5,-31.5Q46.5,-22.75 30.25,-20.625Q27.125,-20.125 23.5,-20.125L22.5,-20.125L21.625,-19.875L21.625,-20.125Q20.875,-20.125 20.875,-19.875L20,-20.125L16.625,-20.125L14.625,-20.5Q17.375,-9.75 27.875,-9.75Q34.5,-9.75 41.875,-14.5L43,-14.75Q47.25,-13.875 47.25,-10Q47.25,-3.5 28.125,-0.5L27.25,-0.5Q12.125,-1.25 7.125,-15Q6.25,-19.375 6.25,-21.625Q6.25,-34.5 17.75,-44.75Q23.875,-48.5 28.875,-48.5ZM15.5,-28.125Q30.375,-28.125 39,-31.875L39,-32.75Q39,-36.375 32.75,-39.75Q31.875,-40.375 29.125,-40.5Q20.375,-40.5 15.5,-28.125Z"></path><path transform="translate(408 200)" d="M30.75,-52Q41.625,-52 46.25,-44.25Q47,-42.5 47,-41.5Q47,-38.125 43.5,-37.5L43.25,-37.5Q41.625,-37.5 39.25,-40.5Q35.875,-43.5 30.25,-43.5Q19.875,-43.5 15.5,-30.5Q15,-27.625 15,-26.25Q15,-16.375 23.5,-12.75Q26,-12 28,-12Q34.625,-12 42.75,-18.25L44.25,-18.5L44.75,-18.5Q47.625,-18.5 48.5,-14Q48.5,-8.75 33.75,-3.75Q29.5,-3 27.75,-3Q12.625,-3 7,-19.25Q6.25,-22.875 6.25,-25.75Q6.25,-39.375 18.5,-48.25Q25,-52 30.75,-52Z"></path><path transform="translate(463 200)" d="M23,-59.75Q26.75,-59 26.75,-55.25Q26.75,-53.125 26.5,-47.75L31.25,-47.75Q36.75,-47.75 38,-43.75L38,-43Q38,-39.75 33,-38.75L26,-38.75Q25.5,-25.625 25.5,-20.5Q25.75,-9.25 26.75,-9.25Q27.5,-9.25 34.25,-13Q34.875,-13 35.25,-13.25Q39.75,-12.25 39.75,-9.25L39.75,-8Q39.75,-3.875 27.5,-0.25L26,-0.25Q18.875,-0.25 17.25,-9.75Q16.5,-14.375 16.5,-19.75Q16.5,-25.375 17.25,-38.75L16.75,-39L13.75,-39Q6.25,-39 6.25,-43.25L6.25,-43.5Q6.25,-47.5 13.75,-47.5L17.75,-47.5Q18.25,-59 20.75,-59Q20.75,-59.5 23,-59.75Z"></path><path transform="translate(509 200)" d=""></path><path transform="translate(542 200)" d="M12.25,-65.375Q14.125,-65.375 15.75,-63.625Q35.375,-65.125 40.5,-65.125Q46.25,-65.125 46.25,-60.875Q46.25,-55.875 35,-55.875Q32.125,-55.875 16.25,-55.625Q16.25,-53.25 15.75,-36.375Q21.875,-36.875 38.25,-37.375Q44.25,-36.75 44.25,-32.875Q44.25,-28.625 36.25,-28.625Q33.5,-28.375 25.5,-28.375L23.75,-28.375Q22.5,-28.375 19.5,-28.125L19.5,-27.875Q19.25,-27.875 19.25,-28.125L18,-28.375L15.5,-28.375Q15.25,-18.375 15.25,-13.375L15.25,-11.875Q15.25,-11.625 15.5,-11.625Q15.5,-11.375 15.25,-11.375L15,-10.125L15,-6.625Q15,0.375 10.75,0.375L10.5,0.375Q6.25,0.375 6.25,-5.375Q7.625,-63.625 9,-63.625Q10.375,-65.375 12.25,-65.375Z"></path><path transform="translate(586 200)" d="M24.875,-47.75Q37.25,-48.25 42.75,-32.875Q43.625,-28.625 43.75,-25.75Q44.25,-9.375 30.75,-2.5Q27.75,-1.125 25,-1L24,-1Q12.125,-0.625 7.125,-13.625Q5.75,-17.375 5.5,-22.625Q5.125,-34 10.375,-40.75Q12.75,-41.75 14.75,-44Q19.5,-47.625 24.875,-47.75ZM14.375,-25.375L14.5,-24.125Q14.875,-12.375 22.25,-10.5L25.25,-10.5Q30.625,-10.75 33.875,-19.875Q34.5,-25 34.5,-25.625Q34.125,-36.25 26.5,-38.875Q25.125,-38.875 24.25,-39Q19,-38.875 14.875,-33.25Q14.375,-28.375 14.375,-25.375Z"></path><path transform="translate(637 200)" d="M11,-48.375Q14.125,-48.375 14.75,-44.125L14.75,-38.375L15.875,-38.375Q29.75,-45.875 34.25,-45.875L35.75,-45.875Q38.625,-45.875 39.25,-42.125L39.25,-41.875Q39.25,-38.375 29.75,-36.625Q14.75,-30.5 14.75,-26.625L14.75,-4.625Q14.75,0.875 10.5,0.875Q6.25,0.875 6.25,-4.875L6.25,-14.625Q6.25,-46.875 7.75,-46.875Q9.25,-48.375 11,-48.375Z"></path><path transform="translate(676 200)" d=""></path><path transform="translate(709 200)" d="M40.5,-64.75Q46,-64.75 49.5,-48.25Q52,-40 56.875,-20.25L57.375,-20.25Q63.5,-44 67.25,-61.75Q68.875,-64 71,-64L71.25,-64Q75.75,-63.375 75.75,-59.75Q65.75,-14.625 62,-4.5Q60,-1 57.25,-1L56,-1Q50.875,-1 48.75,-14.75Q47,-20.875 40.5,-48L40,-48Q32.25,-13.25 27.75,-3.5Q25.875,-0.75 22.75,-0.25Q16.5,-0.25 13.75,-16.5Q9.5,-33.5 6.25,-59.25Q6.25,-62.125 10.5,-62.75Q14,-62.75 15,-54.5Q21.75,-21.125 23.125,-15.75L23.625,-15.75Q28.5,-33.125 35.5,-61.25Q37.25,-64.75 40.5,-64.75Z"></path><path transform="translate(783 200)" d="M28.875,-48.5Q40.125,-48.5 46.125,-35.5Q46.5,-33.25 46.5,-31.5Q46.5,-22.75 30.25,-20.625Q27.125,-20.125 23.5,-20.125L22.5,-20.125L21.625,-19.875L21.625,-20.125Q20.875,-20.125 20.875,-19.875L20,-20.125L16.625,-20.125L14.625,-20.5Q17.375,-9.75 27.875,-9.75Q34.5,-9.75 41.875,-14.5L43,-14.75Q47.25,-13.875 47.25,-10Q47.25,-3.5 28.125,-0.5L27.25,-0.5Q12.125,-1.25 7.125,-15Q6.25,-19.375 6.25,-21.625Q6.25,-34.5 17.75,-44.75Q23.875,-48.5 28.875,-48.5ZM15.5,-28.125Q30.375,-28.125 39,-31.875L39,-32.75Q39,-36.375 32.75,-39.75Q31.875,-40.375 29.125,-40.5Q20.375,-40.5 15.5,-28.125Z"></path><path transform="translate(837 200)" d="M11,-63.875L12,-63.875Q14.75,-63.875 15.5,-59.625L15.5,-43.625Q18.5,-44.625 22.25,-44.625L23.75,-44.625Q35.875,-44.625 40.75,-35.125Q43,-30.25 43,-24.875Q43,-11.5 33.5,-4.375Q28.125,-1.125 21.5,-1.125L18.5,-1.125Q11.625,-1.125 8.75,-4.875Q6.25,-6.375 6.25,-10.875Q6.75,-56.625 8.25,-61.875Q9.625,-63.875 11,-63.875ZM15.25,-34.875Q15.25,-22.625 14.75,-9.875Q19.375,-9.625 21.5,-9.625L21.75,-9.625Q31.125,-9.625 33.5,-16.625Q35,-20.125 35,-25.625Q35,-37.375 21.25,-37.375Q15.25,-37.375 15.25,-35.625L15.25,-34.875Z"></path></svg>