<svg  xmlns="http://www.w3.org/2000/svg" xmlns:xlink="http://www.w3.org/1999/xlink" width="1009" height="300" viewBox="0 0 1033 324"><path transform="translate(0 100)" d="M55,-81.1L55,-63.6Q59.1,-63.6 62.95,-63.55Q66.8,-63.5 70.15,-63.4Q73.5,-63.3 76.15,-63.25Q78.8,-63.2 80.5,-63.1Q83.4,-62.9 85.2,-62.3Q87,-61.7 88,-60.65Q89,-59.6 89.4,-58.05Q89.8,-56.5 90,-54.4Q90.1,-52.1 90.15,-48.15Q90.2,-44.2 90.2,-39.85Q90.2,-35.5 90.15,-31.45Q90.1,-27.4 89.9,-25Q89.7,-22.6 89.15,-21.05Q88.6,-19.5 87.5,-18.55Q86.4,-17.6 84.65,-17.15Q82.9,-16.7 80.4,-16.6Q76.5,-16.3 69.65,-16.15Q62.8,-16 55,-16L55,10.9L44.4,10.9L44.4,-16.1Q36.7,-16.1 30.05,-16.25Q23.4,-16.4 19.6,-16.6Q14.7,-16.8 12.6,-18.5Q10.5,-20.2 10.1,-25Q9.9,-27.3 9.8,-31.4Q9.7,-35.5 9.7,-39.9Q9.7,-44.3 9.75,-48.3Q9.8,-52.3 10,-54.4Q10.1,-56.5 10.55,-58.05Q11,-59.6 12.05,-60.65Q13.1,-61.7 14.85,-62.3Q16.6,-62.9 19.4,-63.1Q21,-63.2 23.55,-63.3Q26.1,-63.4 29.4,-63.45Q32.7,-63.5 36.5,-63.55Q40.3,-63.6 44.4,-63.6L44.4,-81.1L55,-81.1ZM76.2,-54.2Q73.4,-54.4 67.65,-54.45Q61.9,-54.5 55,-54.5L55,-25.2Q58.4,-25.2 61.65,-25.25Q64.9,-25.3 67.7,-25.35Q70.5,-25.4 72.65,-25.45Q74.8,-25.5 76.1,-25.6Q77.8,-25.8 78.6,-26.45Q79.4,-27.1 79.5,-28.6Q79.6,-30.1 79.7,-33.25Q79.8,-36.4 79.8,-39.8Q79.8,-43.2 79.75,-46.3Q79.7,-49.4 79.6,-50.9Q79.5,-52.6 78.85,-53.35Q78.2,-54.1 76.2,-54.2ZM20.2,-50.9Q20.1,-49.5 20.05,-46.45Q20,-43.4 20,-40Q20,-36.6 20.05,-33.4Q20.1,-30.2 20.3,-28.6Q20.4,-27.1 21.2,-26.45Q22,-25.8 23.7,-25.6Q25,-25.5 27.15,-25.45Q29.3,-25.4 32,-25.35Q34.7,-25.3 37.85,-25.25Q41,-25.2 44.4,-25.2L44.4,-54.5Q41,-54.5 37.85,-54.45Q34.7,-54.4 32,-54.35Q29.3,-54.3 27.15,-54.25Q25,-54.2 23.7,-54.2Q21.7,-54.1 21.05,-53.35Q20.4,-52.6 20.2,-50.9Z"></path><path transform="translate(100 100)" d="M53.1,-80.1Q54.3,-76.3 55.25,-73.1Q56.2,-69.9 57.3,-65.7Q67.3,-65.6 76.7,-65.55Q86.1,-65.5 93.9,-65.3L93.9,-56.5Q90.1,-56.6 86.05,-56.65Q82,-56.7 77.6,-56.7Q74.7,-46.5 69.5,-37.7Q64.3,-28.9 57,-21.2Q64.8,-14.9 74.3,-9.75Q83.8,-4.6 95.1,0.1L90.6,10.1Q78.4,5 68.2,-1Q58,-7 49.7,-14.2Q41.4,-7 31.3,-1.05Q21.2,4.9 9.4,10L4.5,0.8Q15.8,-3.8 25.35,-9.1Q34.9,-14.4 42.7,-20.8Q35.5,-28.5 30.35,-37.35Q25.2,-46.2 22.3,-56.7Q17.8,-56.7 13.8,-56.65Q9.8,-56.6 6.1,-56.5L6.1,-65.3Q14.6,-65.5 25.1,-65.6Q35.6,-65.7 46.7,-65.7Q44.9,-72.3 42.4,-79.1L53.1,-80.1ZM50,-27.5Q56,-33.8 60.35,-41.05Q64.7,-48.3 67.1,-56.8Q58.6,-56.9 49.85,-56.9Q41.1,-56.9 32.6,-56.8Q35.1,-48.1 39.45,-40.9Q43.8,-33.7 50,-27.5Z"></path><path transform="translate(200 100)" d="M45.5,-7.4Q49.9,-14 53.45,-20.25Q57,-26.5 59.9,-33Q57.3,-39 54.6,-44.85Q51.9,-50.7 49,-56.4Q47,-50.3 44.9,-44.7Q42.8,-39.1 40.5,-33.7Q42.8,-28.7 44.95,-23.75Q47.1,-18.8 49.3,-13.7L41.9,-10.6L36.1,-24.1Q33.8,-19.3 31.15,-14.5Q28.5,-9.7 25.3,-4.5L18.8,-8.3L18.8,10.4L8.8,10.4L8.8,-65.8Q8.8,-68.9 9.3,-70.95Q9.8,-73 11.1,-74.25Q12.4,-75.5 14.45,-76.15Q16.5,-76.8 19.7,-77Q22.5,-77.2 27.3,-77.35Q32.1,-77.5 37.9,-77.55Q43.7,-77.6 49.9,-77.6Q56.1,-77.6 61.9,-77.55Q67.7,-77.5 72.45,-77.35Q77.2,-77.2 80.1,-77Q83.3,-76.7 85.4,-76.1Q87.5,-75.5 88.75,-74.2Q90,-72.9 90.5,-70.9Q91,-68.9 91,-65.8L91,-21.4Q91,-16 90.85,-11.6Q90.7,-7.2 90.4,-3.35Q90.1,0.5 89.6,4Q89.1,7.5 88.4,11.1L77.7,9.2Q78.6,5.8 79.25,2.55Q79.9,-0.7 80.25,-4.2Q80.6,-7.7 80.8,-11.8Q81,-15.9 81,-21L81,-62.1Q81,-65.5 80.15,-66.7Q79.3,-67.9 76.3,-68.1Q74.3,-68.3 70.15,-68.35Q66,-68.4 60.8,-68.5Q55.6,-68.6 49.85,-68.55Q44.1,-68.5 38.95,-68.5Q33.8,-68.5 29.65,-68.35Q25.5,-68.2 23.5,-68.1Q20.6,-67.9 19.7,-66.7Q18.8,-65.5 18.8,-62.1L18.8,-9.2Q22.8,-15.5 26,-21.35Q29.2,-27.2 32,-33.2Q29.2,-39.5 26.4,-45.5Q23.6,-51.5 20.7,-57.1L27.6,-60.1Q29.8,-55.9 31.95,-51.6Q34.1,-47.3 36.2,-42.8Q37.9,-47.3 39.55,-51.95Q41.2,-56.6 42.8,-61.7L50,-59.5L49.4,-57.8L55.4,-60.4Q57.5,-56 59.65,-51.6Q61.8,-47.2 63.9,-42.5Q65.7,-47 67.25,-51.55Q68.8,-56.1 70.4,-61L77.9,-58.8Q75.6,-51.9 73.25,-45.55Q70.9,-39.2 68.2,-32.9Q71,-26.6 73.7,-20.15Q76.4,-13.7 79,-7.1L71.6,-3.8Q69.7,-8.6 67.8,-13.5Q65.9,-18.4 63.9,-23.5Q61.4,-18.4 58.6,-13.4Q55.8,-8.4 52.5,-3.2L45.5,-7.4Z"></path><path transform="translate(300 100)" d="M4.6,-27.4Q24.4,-27.1 44.5,-27.1L44.5,-33.8Q47.9,-35.2 52.05,-37.1Q56.2,-39 59.3,-40.6Q63.3,-42.8 63.3,-43.5Q63.3,-43.7 62.75,-43.85Q62.2,-44 60.4,-44.1Q59,-44.1 54.65,-44.1Q50.3,-44.1 44.75,-44.05Q39.2,-44 33.25,-43.9Q27.3,-43.8 22.5,-43.7L22.5,-51.5Q27.9,-51.6 34.8,-51.75Q41.7,-51.9 48.4,-51.9Q55.1,-51.9 60.65,-51.85Q66.2,-51.8 68.9,-51.7Q73.6,-51.4 75.35,-49.9Q77.1,-48.4 77.1,-46.5Q77.1,-44.5 75.6,-42.7Q74.1,-40.9 71.2,-38.8Q69.7,-37.8 67.8,-36.65Q65.9,-35.5 63.8,-34.35Q61.7,-33.2 59.55,-32.15Q57.4,-31.1 55.5,-30.2L55.5,-27.1Q75.4,-27.1 95.4,-27.4L95.4,-19.1Q75.4,-18.8 55.5,-18.8L55.5,-15.8Q55.5,-11.6 55.4,-8.05Q55.3,-4.5 55,-1.3Q54.7,1.9 54.15,5.05Q53.6,8.2 52.8,11.5L40.7,10Q41.8,6.9 42.55,4Q43.3,1.1 43.75,-1.95Q44.2,-5 44.35,-8.5Q44.5,-12 44.5,-16.3L44.5,-18.8Q24.4,-18.8 4.6,-19.1L4.6,-27.4ZM53.4,-81.1Q54.3,-78.5 55.1,-75.9Q55.9,-73.3 56.6,-70.6Q60.8,-70.6 64.7,-70.6Q68.6,-70.6 71.95,-70.55Q75.3,-70.5 77.9,-70.45Q80.5,-70.4 82,-70.4Q84.7,-70.3 86.4,-69.9Q88.1,-69.5 89.05,-68.7Q90,-67.9 90.35,-66.45Q90.7,-65 90.7,-62.8L90.7,-48.9L80.6,-48.9L80.6,-58.3Q80.6,-60.7 79.9,-61.4Q79.2,-62.1 76.8,-62.2Q75.4,-62.3 71.25,-62.35Q67.1,-62.4 61.6,-62.4Q56.1,-62.4 49.95,-62.4Q43.8,-62.4 38.3,-62.4Q32.8,-62.4 28.65,-62.35Q24.5,-62.3 23.1,-62.2Q21.9,-62.1 21.15,-61.95Q20.4,-61.8 20,-61.35Q19.6,-60.9 19.5,-60.2Q19.4,-59.5 19.4,-58.3L19.4,-48.9L9.3,-48.9L9.3,-62.8Q9.3,-65 9.7,-66.45Q10.1,-67.9 11.1,-68.75Q12.1,-69.6 13.75,-69.95Q15.4,-70.3 18,-70.4Q19.6,-70.5 22.45,-70.55Q25.3,-70.6 28.95,-70.6Q32.6,-70.6 36.85,-70.6Q41.1,-70.6 45.6,-70.6Q44.1,-75.3 42.2,-80.2L53.4,-81.1Z"></path><path transform="translate(400 100)" d="M37,-51.3Q42.1,-51.4 48.25,-51.45Q54.4,-51.5 61,-51.5L61,-81L71.9,-81L71.9,-51.5Q78.5,-51.5 84.7,-51.45Q90.9,-51.4 96,-51.3L96,-41.8Q90.9,-41.9 84.7,-41.95Q78.5,-42 71.9,-42L71.9,11L61,11L61,-42Q54.4,-42 48.25,-41.95Q42.1,-41.9 37,-41.8L37,-51.3ZM21.9,-49.8Q24,-49.8 25.3,-49.6Q26.6,-49.4 27.3,-48.7Q28,-48 28.25,-46.8Q28.5,-45.6 28.5,-43.7L28.5,-11.2L37.5,-17.7L41.5,-10.5L16,8.2L11.1,-0.3L16.5,-4Q17.9,-5.1 18.3,-6Q18.7,-6.9 18.7,-8.8L18.7,-38.2Q18.7,-40 18.2,-40.55Q17.7,-41.1 15.7,-41.1L4.1,-41.1L4.1,-49.8L21.9,-49.8ZM22.7,-79.2Q24.4,-74.4 25.8,-69.7Q27.2,-65 28.5,-59.8L19.3,-57.7Q18,-62.7 16.55,-67.5Q15.1,-72.3 13.4,-77.2L22.7,-79.2Z"></path><path transform="translate(500 100)" d="M4.4,-52.1Q7.6,-52.6 11.1,-53.2Q14.6,-53.8 18.3,-54.3Q17.6,-60.4 17.4,-66.95Q17.2,-73.5 17.2,-80.9L27.1,-80.9Q27.1,-73.7 27.3,-67.5Q27.5,-61.3 28,-55.6Q35.4,-56.7 42.5,-57.55Q49.6,-58.4 55.8,-59.2L56.7,-50.6Q50.1,-49.8 43.2,-48.9Q36.3,-48 29.1,-46.9Q29.9,-41.8 31.2,-37.2Q32.5,-32.6 34.4,-28.2Q38.7,-32.5 42.45,-37Q46.2,-41.5 49.5,-46.3L56.6,-40.5Q52.7,-35 48.35,-29.85Q44,-24.7 38.9,-19.7Q42.5,-13.9 47.45,-8.35Q52.4,-2.8 59.3,3.1L51.9,11Q45.3,4.9 40.3,-0.95Q35.3,-6.8 31.5,-12.8Q21.5,-4 8.9,4.4L3.3,-4.5Q9.9,-8.3 15.75,-12.5Q21.6,-16.7 26.9,-21.3Q24.2,-27 22.4,-32.95Q20.6,-38.9 19.5,-45.5Q15.8,-44.9 12.2,-44.35Q8.6,-43.8 5.1,-43.2L4.4,-52.1ZM77.9,9.2Q79.2,5.1 80.05,0.75Q80.9,-3.6 81.4,-8.5Q81.9,-13.4 82.1,-18.9Q82.3,-24.4 82.3,-30.9L82.3,-80.2L91.6,-80.2L91.6,-30.5Q91.6,-24 91.45,-18.35Q91.3,-12.7 90.9,-7.65Q90.5,-2.6 89.8,2.1Q89.1,6.8 88,11.3L77.9,9.2ZM71.7,-73.7L71.7,-6.3L62.5,-6.3L62.5,-73.7L71.7,-73.7ZM42.6,-77.9Q44.2,-74.6 45.75,-70.55Q47.3,-66.5 48.5,-62.7L40.2,-60.8Q38.9,-64.4 37.25,-68.55Q35.6,-72.7 34.1,-76L42.6,-77.9Z"></path><path transform="translate(0 200)" d="M2.1,-76.4L69,-76.4L69,-67.3L41,-67.3L41,-0L30.1,-0L30.1,-67.3L2.1,-67.3L2.1,-76.4Z"></path><path transform="translate(71 200)" d="M55.7,-36.1L55.7,-0L45.8,-0L45.8,-33.3Q45.8,-38.8 44.55,-41.7Q43.3,-44.6 40.5,-45.75Q37.7,-46.9 32.7,-46.9Q23.5,-46.9 19.7,-43.4Q15.9,-39.9 15.9,-31.5L15.9,-0L6,-0L6,-76.4L15.9,-76.4L15.9,-48.5Q18.8,-51.5 23.45,-53.35Q28.1,-55.2 36,-55.2Q42.9,-55.2 47.2,-53.5Q51.5,-51.8 53.6,-47.6Q55.7,-43.4 55.7,-36.1Z"></path><path transform="translate(133 200)" d="M53.4,-11L55.9,-3.1Q51.4,-1.1 45,0.05Q38.6,1.2 31.6,1.2Q21.6,1.2 15.7,-1.35Q9.8,-3.9 6.95,-10.2Q4.1,-16.5 4.1,-27.8Q4.1,-38.4 6.5,-44.25Q8.9,-50.1 14.75,-52.65Q20.6,-55.2 31.4,-55.2Q40.6,-55.2 46.1,-53.25Q51.6,-51.3 54.1,-47.05Q56.6,-42.8 56.6,-35.5Q56.6,-31.4 55.8,-29.2Q55,-27 53.1,-26Q51.2,-25 47.7,-24.7Q42.6,-24.4 33.4,-24.4Q23,-24.4 14.3,-24.7Q14.8,-17.4 17.05,-13.55Q19.3,-9.7 22.95,-8.35Q26.6,-7 32.4,-7Q37.9,-7 43.45,-8.05Q49,-9.1 53.4,-11ZM14.3,-32.5Q21.8,-32.2 31.8,-32.2Q40.2,-32.2 43.1,-32.5Q45.2,-32.6 45.85,-33.25Q46.5,-33.9 46.5,-35.7Q46.5,-42.1 42.85,-44.6Q39.2,-47.1 30.6,-47.1Q24.4,-47.1 21,-45.75Q17.6,-44.4 16.1,-41.3Q14.6,-38.2 14.3,-32.5Z"></path><path transform="translate(193 200)" d=""></path><path transform="translate(218 200)" d="M72.6,-53.6Q72.6,-44.8 69.75,-39.35Q66.9,-33.9 59.35,-31.1Q51.8,-28.3 38,-28.3L18.4,-28.3L18.4,-0L7.3,-0L7.3,-65Q7.3,-69.4 8.25,-71.8Q9.2,-74.2 11.45,-75.3Q13.7,-76.4 18,-76.9Q25.4,-77.7 36.3,-77.7Q50.4,-77.7 58.15,-75.55Q65.9,-73.4 69.25,-68.25Q72.6,-63.1 72.6,-53.6ZM36.6,-37.4Q46.9,-37.4 52.25,-39Q57.6,-40.6 59.5,-44Q61.4,-47.4 61.4,-53.5Q61.4,-59.3 59.4,-62.4Q57.4,-65.5 52,-66.95Q46.6,-68.4 35.9,-68.4Q27.6,-68.4 22.8,-67.7Q19.9,-67.3 19.15,-66.4Q18.4,-65.5 18.4,-62.5L18.4,-37.4L36.6,-37.4Z"></path><path transform="translate(294 200)" d="M37.8,-53.7L36.3,-45.4Q32.3,-46.9 28.3,-46.9Q22.3,-46.9 19.2,-42.95Q16.1,-39 16.1,-29.2L16.1,-0L6,-0L6,-54.2L15.6,-54.2L15.8,-46.3Q17.9,-50.5 21.8,-52.85Q25.7,-55.2 30.4,-55.2Q34.3,-55.2 37.8,-53.7Z"></path><path transform="translate(333 200)" d="M4.1,-27Q4.1,-38.6 6.45,-44.5Q8.8,-50.4 14.65,-52.8Q20.5,-55.2 32,-55.2Q43.5,-55.2 49.35,-52.85Q55.2,-50.5 57.5,-44.65Q59.8,-38.8 59.8,-27.2Q59.8,-15.6 57.45,-9.6Q55.1,-3.6 49.25,-1.2Q43.4,1.2 32,1.2Q20.6,1.2 14.7,-1.2Q8.8,-3.6 6.45,-9.55Q4.1,-15.5 4.1,-27ZM49.7,-26.7Q49.7,-35.1 48.25,-39.35Q46.8,-43.6 43.05,-45.25Q39.3,-46.9 31.7,-46.9Q24.3,-46.9 20.65,-45.35Q17,-43.8 15.6,-39.8Q14.2,-35.8 14.2,-27.6Q14.2,-19.1 15.65,-14.8Q17.1,-10.5 20.95,-8.8Q24.8,-7.1 32.5,-7.1Q39.8,-7.1 43.35,-8.7Q46.9,-10.3 48.3,-14.4Q49.7,-18.5 49.7,-26.7Z"></path><path transform="translate(397 200)" d="M5.4,-67.3Q5.4,-73 11.8,-73Q15.1,-73 16.7,-71.6Q18.3,-70.2 18.3,-67.3Q18.3,-64.4 16.7,-63Q15.1,-61.6 11.8,-61.6Q5.4,-61.6 5.4,-67.3ZM-7.2,11.9Q-3,12.7 0.9,12.7Q3.5,12.7 4.75,12.1Q6,11.5 6.45,9.95Q6.9,8.4 6.9,5.1L6.9,-54L16.8,-54L16.8,4.9Q16.8,11.6 15.55,15Q14.3,18.4 11.25,19.8Q8.2,21.2 2.1,21.2Q-3.4,21.2 -8.3,20.3L-7.2,11.9Z"></path><path transform="translate(420 200)" d="M53.4,-11L55.9,-3.1Q51.4,-1.1 45,0.05Q38.6,1.2 31.6,1.2Q21.6,1.2 15.7,-1.35Q9.8,-3.9 6.95,-10.2Q4.1,-16.5 4.1,-27.8Q4.1,-38.4 6.5,-44.25Q8.9,-50.1 14.75,-52.65Q20.6,-55.2 31.4,-55.2Q40.6,-55.2 46.1,-53.25Q51.6,-51.3 54.1,-47.05Q56.6,-42.8 56.6,-35.5Q56.6,-31.4 55.8,-29.2Q55,-27 53.1,-26Q51.2,-25 47.7,-24.7Q42.6,-24.4 33.4,-24.4Q23,-24.4 14.3,-24.7Q14.8,-17.4 17.05,-13.55Q19.3,-9.7 22.95,-8.35Q26.6,-7 32.4,-7Q37.9,-7 43.45,-8.05Q49,-9.1 53.4,-11ZM14.3,-32.5Q21.8,-32.2 31.8,-32.2Q40.2,-32.2 43.1,-32.5Q45.2,-32.6 45.85,-33.25Q46.5,-33.9 46.5,-35.7Q46.5,-42.1 42.85,-44.6Q39.2,-47.1 30.6,-47.1Q24.4,-47.1 21,-45.75Q17.6,-44.4 16.1,-41.3Q14.6,-38.2 14.3,-32.5Z"></path><path transform="translate(480 200)" d="M4.1,-26.4Q4.1,-38.1 6.45,-44.2Q8.8,-50.3 14.3,-52.75Q19.8,-55.2 30.3,-55.2Q35.5,-55.2 40.9,-54.2Q46.3,-53.2 50.5,-51.4L48.2,-43.2Q40.5,-46.9 31,-46.9Q23.9,-46.9 20.4,-45.2Q16.9,-43.5 15.55,-39.3Q14.2,-35.1 14.2,-26.7Q14.2,-18.9 15.85,-14.65Q17.5,-10.4 21.05,-8.75Q24.6,-7.1 30.9,-7.1Q35.9,-7.1 40.6,-8.15Q45.3,-9.2 49,-11.2L52,-3.5Q43.4,1.2 29.6,1.2Q20,1.2 14.55,-1.15Q9.1,-3.5 6.6,-9.45Q4.1,-15.4 4.1,-26.4Z"></path><path transform="translate(533 200)" d="M36.1,-0.5Q30.7,1.2 23,1.2Q18,1.2 15.4,0.1Q12.8,-1 11.75,-3.7Q10.7,-6.4 10.7,-11.6L10.7,-45.8L2.1,-45.8L2.1,-54L10.7,-54L10.7,-66.7L20.6,-66.7L20.6,-54L35.9,-54L35.9,-45.8L20.6,-45.8L20.6,-12.2Q20.6,-9 21.6,-8Q22.6,-7 25.5,-7Q30.4,-7 34.9,-8.3L36.1,-0.5Z"></path><path transform="translate(571 200)" d=""></path><path transform="translate(596 200)" d="M18.3,-60.7L18.3,-44.1L60.9,-44.1L60.9,-34.9L18.3,-34.9L18.3,-0L7.3,-0L7.4,-64Q7.4,-68.7 8.5,-71.2Q9.6,-73.7 12.2,-74.75Q14.8,-75.8 19.8,-76.1Q27.1,-76.4 40.4,-76.4Q53.7,-76.4 64.5,-76.1L64.5,-66.9Q54.4,-67.2 42.1,-67.2Q29.8,-67.2 24.5,-66.9Q20.8,-66.7 19.55,-65.45Q18.3,-64.2 18.3,-60.7Z"></path><path transform="translate(658 200)" d="M4.1,-27Q4.1,-38.6 6.45,-44.5Q8.8,-50.4 14.65,-52.8Q20.5,-55.2 32,-55.2Q43.5,-55.2 49.35,-52.85Q55.2,-50.5 57.5,-44.65Q59.8,-38.8 59.8,-27.2Q59.8,-15.6 57.45,-9.6Q55.1,-3.6 49.25,-1.2Q43.4,1.2 32,1.2Q20.6,1.2 14.7,-1.2Q8.8,-3.6 6.45,-9.55Q4.1,-15.5 4.1,-27ZM49.7,-26.7Q49.7,-35.1 48.25,-39.35Q46.8,-43.6 43.05,-45.25Q39.3,-46.9 31.7,-46.9Q24.3,-46.9 20.65,-45.35Q17,-43.8 15.6,-39.8Q14.2,-35.8 14.2,-27.6Q14.2,-19.1 15.65,-14.8Q17.1,-10.5 20.95,-8.8Q24.8,-7.1 32.5,-7.1Q39.8,-7.1 43.35,-8.7Q46.9,-10.3 48.3,-14.4Q49.7,-18.5 49.7,-26.7Z"></path><path transform="translate(722 200)" d="M37.8,-53.7L36.3,-45.4Q32.3,-46.9 28.3,-46.9Q22.3,-46.9 19.2,-42.95Q16.1,-39 16.1,-29.2L16.1,-0L6,-0L6,-54.2L15.6,-54.2L15.8,-46.3Q17.9,-50.5 21.8,-52.85Q25.7,-55.2 30.4,-55.2Q34.3,-55.2 37.8,-53.7Z"></path><path transform="translate(761 200)" d=""></path><path transform="translate(786 200)" d="M0.5,-76.4L11.5,-76.4L25.9,-17.9Q26.5,-15.6 26.85,-14.85Q27.2,-14.1 27.6,-14.1Q28,-14.1 28.35,-14.9Q28.7,-15.7 29.3,-17.9L41.9,-67.2Q43.3,-72.8 45.05,-74.85Q46.8,-76.9 50,-76.9Q53.2,-76.9 54.9,-74.85Q56.6,-72.8 57.9,-67.2L70.4,-17.9Q71.4,-14.1 72.2,-14.1Q72.8,-14.1 73.9,-17.9L88.3,-76.4L99.2,-76.4L82.4,-11.4Q80.6,-4.6 78.55,-1.85Q76.5,0.9 72.6,0.9Q68.7,0.9 66.65,-1.85Q64.6,-4.6 62.9,-11.4L50.8,-59.2Q50.3,-60.9 49.9,-60.9Q49.6,-60.9 49.4,-60.5Q49.2,-60.1 49,-59.2L36.8,-11.9Q35,-4.6 33,-1.85Q31,0.9 27,0.9Q23.1,0.9 21.1,-1.85Q19.1,-4.6 17.2,-11.9L0.5,-76.4Z"></path><path transform="translate(886 200)" d="M53.4,-11L55.9,-3.1Q51.4,-1.1 45,0.05Q38.6,1.2 31.6,1.2Q21.6,1.2 15.7,-1.35Q9.8,-3.9 6.95,-10.2Q4.1,-16.5 4.1,-27.8Q4.1,-38.4 6.5,-44.25Q8.9,-50.1 14.75,-52.65Q20.6,-55.2 31.4,-55.2Q40.6,-55.2 46.1,-53.25Q51.6,-51.3 54.1,-47.05Q56.6,-42.8 56.6,-35.5Q56.6,-31.4 55.8,-29.2Q55,-27 53.1,-26Q51.2,-25 47.7,-24.7Q42.6,-24.4 33.4,-24.4Q23,-24.4 14.3,-24.7Q14.8,-17.4 17.05,-13.55Q19.3,-9.7 22.95,-8.35Q26.6,-7 32.4,-7Q37.9,-7 43.45,-8.05Q49,-9.1 53.4,-11ZM14.3,-32.5Q21.8,-32.2 31.8,-32.2Q40.2,-32.2 43.1,-32.5Q45.2,-32.6 45.85,-33.25Q46.5,-33.9 46.5,-35.7Q46.5,-42.1 42.85,-44.6Q39.2,-47.1 30.6,-47.1Q24.4,-47.1 21,-45.75Q17.6,-44.4 16.1,-41.3Q14.6,-38.2 14.3,-32.5Z"></path><path transform="translate(946 200)" d="M15.6,-8.1L15.5,0.2L6,0.2L6,-76.4L15.9,-76.4L15.9,-48Q19.3,-51.3 23.8,-53.25Q28.3,-55.2 35.8,-55.2Q43.1,-55.2 48.05,-53Q53,-50.8 55.8,-44.8Q58.6,-38.8 58.6,-27.8Q58.6,-16.4 55.65,-10Q52.7,-3.6 47.65,-1.2Q42.6,1.2 35.6,1.2Q20.8,1.2 15.6,-8.1ZM48.5,-27.6Q48.5,-35.2 46.9,-39.4Q45.3,-43.6 41.95,-45.25Q38.6,-46.9 32.9,-46.9Q26.7,-46.9 23,-45.15Q19.3,-43.4 17.6,-39.3Q15.9,-35.2 15.9,-28Q15.9,-17.1 19.75,-12.1Q23.6,-7.1 33.5,-7.1Q38.4,-7.1 41.6,-8.65Q44.8,-10.2 46.65,-14.7Q48.5,-19.2 48.5,-27.6Z"></path></svg>