<svg  xmlns="http://www.w3.org/2000/svg" xmlns:xlink="http://www.w3.org/1999/xlink" width="849" height="300" viewBox="0 0 873 324"><path transform="translate(0 100)" d="M57,-76.2Q61.8,-75.7 62.35,-70.55Q62.9,-65.4 62.8,-61.6Q69,-61.5 75.75,-59.9Q82.5,-58.3 86.8,-53.2Q89.9,-48.4 89,-42.4Q89.1,-37.2 88.5,-34.65Q87.9,-32.1 85.7,-27.5Q83.9,-24.1 83.4,-20.3Q83.4,-19.1 84.4,-18.1L84.3,-18.1Q84.7,-17.5 84.7,-16.7Q84,-13.2 78.3,-12.8Q72.6,-12.4 69.7,-12.6Q62.3,-12.8 61.35,-10.25Q60.4,-7.7 60.8,-0.5Q60.2,3 59.8,5.1Q59,7.4 56.8,7.8Q51.1,6.9 50.25,-0.95Q49.4,-8.8 49.6,-12.6Q39.7,-11.9 29.8,-11.4Q28.7,-11.4 26,-11.55Q23.3,-11.7 22.5,-12Q18,-16.2 17.6,-32.15Q17.2,-48.1 17.5,-56.3Q18.5,-57.4 19.4,-58.7L19.3,-58.7Q20.3,-60.2 22.2,-60.3Q27.7,-59.8 27.65,-56.5Q27.6,-53.2 29.4,-52.7Q30.5,-52.9 34.85,-54.3Q39.2,-55.7 40.7,-56.3L40.6,-56.3L42.1,-56.8L42,-56.8Q43.5,-57.4 46.45,-58.45Q49.4,-59.5 50.6,-60.4Q51.5,-64.2 51.85,-69.9Q52.2,-75.6 57,-76.2ZM78,-51.3Q70.8,-54 62.9,-53.9Q62.8,-51.9 62.4,-49.8Q61.3,-41.4 61.6,-32.9L61.6,-18.6L66.5,-18.6Q69.2,-18.5 71.8,-19.1Q75,-20.8 79,-29.45Q83,-38.1 83.4,-42.3Q83.5,-48.8 77.7,-51.5L78,-51.3ZM49.6,-50.3Q45.5,-49.5 40.55,-47.55Q35.6,-45.6 31.9,-43.7Q29.1,-42.7 28.7,-40.1Q29.1,-34 30,-27.8Q30.4,-21 32.7,-19.65Q35,-18.3 41.9,-18.6L49.3,-18.6Q49.5,-26.7 49.6,-34.7L49.6,-50.3Z"></path><path transform="translate(100 100)" d="M68.8,-41.4Q72.3,-41.4 71.8,-37.7Q71.5,-33.3 68.1,-29.75Q64.7,-26.2 61.6,-23.4Q64.9,-21.7 71.75,-17.55Q78.6,-13.4 79.4,-9.5Q79.5,-7.4 78.7,-4.7Q77.9,-2 75.3,-1.7Q71.6,-2.3 62.75,-7.35Q53.9,-12.4 50.6,-14.6Q48,-12.6 39.9,-6.8Q31.8,-1 29.2,-0.3Q26.2,-1.1 25.6,-4.2Q26.6,-7.9 33.85,-12.75Q41.1,-17.6 42.1,-19.5Q41,-21.4 33.55,-26.25Q26.1,-31.1 25,-34.7Q24.3,-39.9 29.2,-40.4Q34.3,-39.7 42.35,-34.55Q50.4,-29.4 53.2,-28.6Q55.9,-31.2 60.85,-36.05Q65.8,-40.9 68.8,-41.4ZM36.8,-77.4Q38.6,-77 45.75,-73.8Q52.9,-70.6 55.9,-69.3Q57.6,-68.7 60.35,-67.15Q63.1,-65.6 63.4,-63.7Q62.9,-61.6 60.8,-61.2Q56.8,-61.5 50,-64.15Q43.2,-66.8 39.5,-68.8Q35.4,-70 34.2,-73.6Q34.2,-74 34.1,-74.4Q34.6,-76.8 36.8,-77.4ZM72.2,-56.6Q77.1,-57.3 77.7,-52.9Q77.8,-51 76.7,-49.6Q75.4,-49 69.4,-48.65Q63.4,-48.3 61.6,-48.2Q49,-47.6 36.3,-46.3Q31.2,-45.7 26,-45.5Q22,-45.3 21.2,-49Q21.3,-50.6 22.5,-51.8Q23.8,-52.9 27.4,-53.2Q31,-53.5 32.7,-53.5Q52.5,-55.7 72.2,-56.6Z"></path><path transform="translate(200 100)" d="M83.9,-40Q84.9,-66.2 58.8,-66.1Q51.3,-65.9 40.75,-62.4Q30.2,-58.9 24,-54.9Q24.2,-38.3 24.3,-21.7Q24.3,-19.2 24.15,-12.75Q24,-6.3 23.5,-4.2Q22.4,-1.6 19.5,-1.6Q13.3,-3.2 12.8,-16.45Q12.3,-29.7 12.7,-35.4Q12.6,-40.1 13.05,-53.85Q13.5,-67.6 15.8,-71.2Q17.4,-72.4 19.2,-72.4Q22.8,-71.9 23.05,-68.05Q23.3,-64.2 24.2,-63.6Q41.4,-71.7 60.3,-72.9Q68.5,-73 76.7,-69.6Q84.9,-66.2 88.2,-58Q89.6,-53.7 90.05,-47.45Q90.5,-41.2 90.5,-36.6Q90.6,-30.7 89.05,-16.9Q87.5,-3.1 82.9,-1.4Q79.5,-1.9 79.7,-5.4Q80.1,-10.2 81.2,-15Q83.7,-27.4 83.9,-40ZM35.1,-32.4Q34.6,-34.3 31.45,-38.4Q28.3,-42.5 27.8,-45.1Q28.3,-48.3 31.2,-49.1Q33.2,-48.8 36.25,-46.2Q39.3,-43.6 40.4,-42Q41.9,-44 44.7,-48.7Q47.5,-53.4 49.8,-54Q52,-53.7 52.3,-51.4Q52,-48.5 49.3,-43.35Q46.6,-38.2 45.2,-35.7Q47.3,-33 50.1,-28.95Q52.9,-24.9 53.2,-21.2Q53.2,-17.4 50,-16.1Q47.5,-16.5 44.4,-19.9Q41.3,-23.3 40.1,-25.3Q38.6,-23.1 35.8,-19.2Q33,-15.3 30.7,-14.9Q27.9,-15.3 27.5,-18Q27.8,-20 30.75,-25.05Q33.7,-30.1 35.1,-32.4ZM61.7,-31.3Q60.1,-34.3 57.45,-37.9Q54.8,-41.5 54.5,-44.7Q54.6,-47.6 57.3,-48.1Q59.6,-47.8 62.4,-45.1Q65.2,-42.4 66.6,-40.8Q68.6,-43.2 70.45,-47.5Q72.3,-51.8 75.6,-52.3Q78.5,-51.6 78.3,-48.4Q78,-46 75.55,-41.1Q73.1,-36.2 72,-34.2Q73.9,-32 76.35,-28.1Q78.8,-24.2 79,-21.2Q79.4,-17.8 76.5,-16.7Q74.3,-17 71.3,-20.05Q68.3,-23.1 66.8,-25.1Q65.7,-23 63.05,-19.25Q60.4,-15.5 58.1,-15.1Q55.4,-15.6 55,-18.5Q55.3,-20.8 57.85,-25Q60.4,-29.2 61.7,-31.3Z"></path><path transform="translate(300 100)" d="M35.5,-80.7Q40.1,-80.5 52,-77.4Q63.9,-74.3 65.4,-70.7Q65.6,-66.8 61.5,-67.7Q57.2,-68 48.8,-70.55Q40.4,-73.1 36.2,-74.7Q33.3,-75.5 32.4,-78.2Q32.8,-80.8 35.5,-80.7ZM17.5,-67.6Q19.9,-67.5 22.2,-66.7Q23.2,-65 24.5,-61Q25.8,-57 26.8,-56.4Q35.9,-60.1 47.1,-62.35Q58.3,-64.6 68.1,-64.7Q75.2,-64.9 81.85,-62.35Q88.5,-59.8 89,-51.6Q89,-48.7 87.45,-44.1Q85.9,-39.5 82.6,-39Q80.2,-39.3 80,-41.7Q80.8,-45.4 81.6,-49.3Q81.2,-54.8 76.2,-56.1Q71.2,-57.4 66.5,-57.2Q46.6,-57.2 28.9,-48.1Q28.8,-45.2 27.7,-40.55Q26.6,-35.9 23.5,-35.4Q21.3,-35.7 19.4,-36.9Q16.6,-38.7 15.8,-42.2Q15,-45.7 14.7,-48.8Q13.8,-54.3 13.6,-60Q13.5,-62.1 14.25,-64.75Q15,-67.4 17.5,-67.6ZM50.7,-42Q61.5,-42.8 71.4,-38.7Q75.5,-37.6 75.2,-33.3L75.2,-32Q74.3,-24.9 67.95,-21.3Q61.6,-17.7 60.7,-16.2Q61,-15 62.4,-15.2Q67.9,-15.8 73.6,-16.3Q77.5,-16.8 78,-13.2Q77.7,-9 73.95,-8.5Q70.2,-8 66.6,-8L61,-7.4Q60.9,-4.6 60.05,0.2Q59.2,5 55.6,5.5Q50.7,5.2 50.15,1.35Q49.6,-2.5 49.9,-6.3Q41.8,-4.7 33.6,-4.3Q28.5,-3.9 27.5,-8.5Q28,-12.3 32.7,-12.9Q37.4,-13.5 40.6,-13.4L49.3,-14Q48.7,-20.5 53.7,-23.3Q56.1,-24.1 61.6,-27.45Q67.1,-30.8 67.8,-32.8Q67.2,-34.6 62.6,-35.05Q58,-35.5 56.4,-35.4Q46.6,-35.6 37.5,-32.1Q35.1,-31.1 32.5,-30.9Q29.4,-31.3 29.6,-34.6Q30.5,-39.5 38.35,-40.85Q46.2,-42.2 50.7,-42Z"></path><path transform="translate(400 100)" d="M72.3,-75Q74.4,-74.9 76,-73.7Q77.6,-71.3 78.25,-62.3Q78.9,-53.3 78.9,-50.7Q80.8,-50.8 87.2,-50.75Q93.6,-50.7 95.6,-49.8Q97.1,-48.5 97.1,-46.4Q96.3,-41.9 89.55,-41.3Q82.8,-40.7 79,-41L78.6,-22Q78.7,-18.4 78.15,-7.15Q77.6,4.1 74,5.6Q72.7,5.5 71.6,4.8Q68.3,1.9 68,-7.75Q67.7,-17.4 67.9,-21.7L67.8,-40.4Q58.7,-39.8 49.6,-39.5Q44.5,-39.1 43.2,-43.7Q44.3,-48.5 53.85,-48.25Q63.4,-48 67.7,-49.3Q68.7,-50.7 68.6,-57.5Q68.5,-64.3 68.4,-67.4Q68.3,-69.6 68.85,-72.2Q69.4,-74.8 72.3,-75ZM28.5,-53.4Q30.3,-53.4 31.7,-52.2Q33.2,-49.5 33.3,-38.5Q33.4,-27.5 33.3,-23L33.3,-17.7Q37.7,-19.6 42,-20.4Q44,-20.2 43.8,-18.1Q43.6,-16.3 41.25,-14.95Q38.9,-13.6 37.3,-12.9Q33.2,-10.6 27.15,-7.05Q21.1,-3.5 16.9,-3.1Q14.2,-3.4 14.3,-6.4Q14.7,-9.1 18.75,-10.95Q22.8,-12.8 25,-13.6Q24.1,-27.5 24.3,-41.5L15.5,-41.5Q12.3,-41.3 7.9,-41.75Q3.5,-42.2 3.1,-46.2Q3.5,-50.3 7.55,-50.6Q11.6,-50.9 15,-50.6Q16.8,-50.5 20.55,-50.55Q24.3,-50.6 25.6,-51.9Q26.6,-53.5 28.5,-53.4ZM19,-80.3Q21.4,-80 25.4,-77.3Q29.4,-74.6 31.4,-73.1Q34,-71.4 36.6,-69.15Q39.2,-66.9 39.4,-63.6Q39.9,-59.6 36.4,-58.5Q33.4,-58.9 29.05,-62.55Q24.7,-66.2 21.8,-68.4Q16.8,-70.7 15.3,-75.5Q15.4,-79.3 19,-80.3Z"></path><path transform="translate(500 100)" d="M28.4,-14.8Q21.7,-12.2 14.4,-11.3Q13.1,-12.1 12.3,-13.2L12.3,-14.5Q12.9,-17.6 18.2,-19.5Q23.5,-21.4 26.1,-23Q26.6,-23.9 26.5,-25Q26.3,-33.1 24.1,-40.8Q18.4,-40.6 12.7,-40.3Q8.4,-40.1 7.6,-43.9Q8.2,-47.7 13.65,-48.05Q19.1,-48.4 22.6,-48.4Q23.5,-49.2 23.3,-50.5Q22.9,-58 22.4,-65.3Q22.3,-68.1 23.15,-70.5Q24,-72.9 27.3,-73.1Q31.2,-72.6 32.1,-67.65Q33,-62.7 33.2,-59.8L35.1,-49.7Q37.1,-49.8 44.1,-49.8Q51.1,-49.8 53.3,-48Q53.6,-47 53.6,-45.8L53.5,-44.6Q51.8,-42.6 45.35,-42.75Q38.9,-42.9 36.1,-42.2Q37.1,-35 38.9,-28.1Q41,-29.3 45.25,-31Q49.5,-32.7 51.9,-32.9Q54.5,-32.6 54.2,-29.9Q53.7,-26 48.75,-23.85Q43.8,-21.7 40.5,-20.1L40.5,-19.7Q40.9,-12.5 41.3,-5.2Q41.5,-2.7 41,-0.6Q40.5,1.5 37.4,1.6Q33.1,0.9 31.1,-5.15Q29.1,-11.2 28.4,-14.8ZM82.9,-15Q82.9,-34.8 84,-54.5Q84.2,-60.6 85,-66.5Q85.8,-69.5 88.9,-69.7Q90.2,-69.7 91.4,-68.9Q93.4,-66.6 93.4,-58.3Q93.4,-50 93.3,-46.8Q94.1,-26.2 91.2,-5.8Q90.1,-4.1 88,-4Q83.9,-4.3 83.3,-8.05Q82.7,-11.8 82.9,-15ZM64.3,-37.1Q64.3,-39.2 64.4,-45.05Q64.5,-50.9 64.9,-52.6Q65.7,-54.4 67.6,-54.5Q70.6,-54 70.9,-50.9Q72.2,-40.3 71.5,-29.3Q71.7,-26.9 71.55,-22.55Q71.4,-18.2 68.5,-17.7Q64.6,-18.6 64.3,-26.15Q64,-33.7 64.3,-37.1ZM41.4,-72.6Q41.7,-75.1 44,-75.7Q46.5,-75.2 50.65,-70.65Q54.8,-66.1 55.2,-63.2Q55.4,-60.2 52.6,-59.7Q49.7,-60.2 45.75,-65.05Q41.8,-69.9 41.4,-72.6Z"></path><path transform="translate(0 200)" d="M37.1,-65.4Q41.7,-65.8 46.45,-65.3Q51.2,-64.8 51.6,-59.3Q51,-53.7 44.9,-53.2Q38.8,-52.7 34.4,-53.1Q34.9,-49.1 34.7,-45Q34.7,-39.3 34.2,-22.55Q33.7,-5.8 32.9,-2.2Q31.9,-0.6 29.9,-0.7Q25.6,-1.1 25.05,-5.35Q24.5,-9.6 24.8,-13.2Q25.2,-23.9 25.5,-34.5Q25.2,-43.6 24.9,-52.7Q18.4,-52.4 11.8,-52.4Q8.2,-52.1 4.1,-52.65Q0,-53.2 -0.3,-57.7Q-0.4,-61.3 2.6,-62.9L2.5,-62.9Q5.3,-64 15.15,-64.7Q25,-65.4 28.9,-65.4L37.1,-65.4Z"></path><path transform="translate(52 200)" d="M14.7,-67.9Q18.3,-67.4 18.5,-63.8Q18.1,-49.8 16.6,-35.7Q22.6,-41.8 31,-42.4Q39.4,-42 41.35,-35.7Q43.3,-29.4 43,-22.5Q43.1,-19.2 42.15,-10.4Q41.2,-1.6 37.6,-0.5Q34,-1.3 34.2,-5.1Q35.2,-13.9 36.1,-22.8Q36.2,-25.4 35.4,-29.25Q34.6,-33.1 31.5,-33.5Q25.3,-32.8 21,-27.9Q15.7,-20.5 15.2,-11.9Q14.7,-3.3 10.8,-2.5Q7,-2.7 6,-5.5Q5,-8.3 5.1,-11.5Q5.1,-20.3 6.65,-39.9Q8.2,-59.5 11.1,-65.9Q12.4,-67.9 14.7,-67.9Z"></path><path transform="translate(100 200)" d="M25.2,-41.3Q30.8,-41.3 34.95,-38.1Q39.1,-34.9 39.3,-29Q39.5,-24.9 37.6,-21.3Q34.9,-17.8 28.4,-15.8Q21.9,-13.8 17.6,-13.4Q14.9,-13.3 12.3,-12.4Q16.5,-9 21.8,-8.5Q26.9,-8.8 31.8,-10.9Q36.7,-13 41.6,-13.3Q44.3,-13.2 44.2,-10.4Q44.4,-6.2 40.5,-4.4Q37,-2.6 32.2,-1.25Q27.4,0.1 23.5,0.2Q14.6,0.1 8.85,-4.8Q3.1,-9.7 2.9,-18.8Q3.2,-28 9.6,-34.5Q16,-41 25.2,-41.3ZM25.8,-33.8Q21.1,-33.5 16.95,-29.9Q12.8,-26.3 10.6,-22.4Q11.3,-21.9 12.2,-22Q15.5,-22.1 23.4,-24.05Q31.3,-26 32.3,-28.6Q30.9,-33.2 25.8,-33.8Z"></path><path transform="translate(146 200)" d=""></path><path transform="translate(176 200)" d="M12.8,-65.9Q17.9,-65.7 18.25,-62.4Q18.6,-59.1 18.3,-54.8Q26.4,-64 38.7,-64.2Q48.1,-63.9 53.05,-57.55Q58,-51.2 58,-42.2Q57.9,-32.8 52.3,-24.4Q46.7,-16 36.7,-15.4Q33.5,-15.5 28.5,-17.55Q23.5,-19.6 23,-23Q23.3,-25.6 25.8,-25.7Q31,-24.6 36.4,-23.4Q42.3,-23.9 46.8,-30.05Q51.3,-36.2 51.5,-41.9Q51.4,-47.5 48,-51.9Q44.6,-56.3 38.8,-56.6Q32.4,-56.3 26.8,-51.4Q21.2,-46.5 18.8,-40.8L18.8,-23.6Q19.1,-20.1 18.9,-10.95Q18.7,-1.8 14.3,-0.7Q12.9,-0.9 11.8,-1.7L11.9,-1.7Q8,-4 7.8,-8.5Q7.6,-13 7.9,-17.2L7.9,-27.7Q7.8,-33.2 7.95,-46.55Q8.1,-59.9 10.2,-64.2Q11.1,-65.8 12.8,-65.9Z"></path><path transform="translate(236 200)" d="M12.2,-42.3Q15.8,-42.1 16.15,-38.95Q16.5,-35.8 16.5,-32.7Q20.5,-36.4 23.45,-37.6Q26.4,-38.8 31.9,-38.7Q35.2,-38.9 38.9,-38.1Q42.6,-37.3 42.9,-33.3Q42.7,-30.3 39.5,-30.4Q35,-31.3 30.4,-32.2Q23.2,-31.4 19.2,-24.9Q16.8,-19.6 16.8,-10.3Q16.8,-1 12.4,-0Q6.9,-0.5 6.25,-5.9Q5.6,-11.3 5.9,-15.5Q5.6,-20.3 6.35,-30.7Q7.1,-41.1 12.2,-42.3Z"></path><path transform="translate(280 200)" d="M23.4,-40.5Q31.4,-39.9 37.3,-34.3Q42,-27.8 41.1,-19.5Q41.2,-10.8 37.3,-5.35Q33.4,0.1 24,0.3Q15,0.2 9.25,-5.05Q3.5,-10.3 3.3,-19.4Q3.3,-24.8 6.4,-30.8Q9.5,-36.8 15.4,-37.3Q19.3,-37.7 19.7,-34Q19.3,-30.2 16.4,-26.85Q13.5,-23.5 13.1,-19.8Q13.3,-15.2 17,-12.8Q20.7,-10.4 24.9,-10.4Q36,-10.7 35.3,-22Q35.4,-25.4 34,-28.5L34,-28.4Q30.5,-32.3 25.35,-33.65Q20.2,-35 19.7,-38Q20.3,-40.8 23.4,-40.5Z"></path><path transform="translate(324 200)" d="M9.8,-66.4Q11.6,-66.2 17.3,-64.75Q23,-63.3 25,-62.6Q28.2,-61.9 27.8,-58.7Q28.4,-55.2 25.1,-54.8Q21.7,-55 15.15,-57.9Q8.6,-60.8 7.9,-64.3Q8.1,-66 9.8,-66.4ZM17.1,-43.8Q19.3,-43.7 20.9,-42.3Q22.1,-40.3 22.4,-34.4Q22.7,-28.5 22.7,-26Q23.1,-9.9 18.35,3.15Q13.6,16.2 -1.1,24.2Q-5.3,23 -5.5,18.8Q-5.1,14.9 -1.05,11.55Q3,8.2 5.6,5.3Q9.7,-0.8 11.6,-12.05Q13.5,-23.3 13.7,-30.6Q13.6,-32.7 13.95,-37.95Q14.3,-43.2 17.1,-43.8Z"></path><path transform="translate(356 200)" d="M25.2,-41.3Q30.8,-41.3 34.95,-38.1Q39.1,-34.9 39.3,-29Q39.5,-24.9 37.6,-21.3Q34.9,-17.8 28.4,-15.8Q21.9,-13.8 17.6,-13.4Q14.9,-13.3 12.3,-12.4Q16.5,-9 21.8,-8.5Q26.9,-8.8 31.8,-10.9Q36.7,-13 41.6,-13.3Q44.3,-13.2 44.2,-10.4Q44.4,-6.2 40.5,-4.4Q37,-2.6 32.2,-1.25Q27.4,0.1 23.5,0.2Q14.6,0.1 8.85,-4.8Q3.1,-9.7 2.9,-18.8Q3.2,-28 9.6,-34.5Q16,-41 25.2,-41.3ZM25.8,-33.8Q21.1,-33.5 16.95,-29.9Q12.8,-26.3 10.6,-22.4Q11.3,-21.9 12.2,-22Q15.5,-22.1 23.4,-24.05Q31.3,-26 32.3,-28.6Q30.9,-33.2 25.8,-33.8Z"></path><path transform="translate(402 200)" d="M26.5,-41.2Q29.7,-41.2 33.1,-39.7Q36.5,-38.2 36.8,-34.6Q36.7,-32.7 36.6,-30.8Q31.5,-31.4 26.4,-31.6Q20.9,-31.1 16.2,-25.45Q11.5,-19.8 11.2,-14.5Q11.6,-11.1 15.9,-8.95Q20.2,-6.8 23.4,-6.7Q28,-6.9 31,-8.6Q34,-10.3 35.8,-10.5Q37.2,-10 36.9,-8.5Q36.2,-4.5 30.1,-2.35Q24,-0.2 20.3,-0.2Q13.8,-0.3 8.75,-4.5Q3.7,-8.7 3.4,-15.4Q3.6,-25 10.15,-32.85Q16.7,-40.7 26.5,-41.2Z"></path><path transform="translate(441 200)" d="M19.5,-61.5Q24.8,-61 23.7,-55.4Q23.4,-48 22.7,-40.5Q26.2,-40.4 30.55,-39.7Q34.9,-39 35.3,-34.8Q34.9,-29.8 30.05,-29.35Q25.2,-28.9 21.1,-29Q20.2,-22.5 20.2,-15.9Q19.8,-11.2 22,-7.1Q27.7,-7.5 33.2,-7.5Q33.3,-6.5 33.3,-5.3Q33,-2.4 29.8,-1.15Q26.6,0.1 23.9,0.1Q15.3,-0.2 12.8,-6.15Q10.3,-12.1 10.6,-19.7Q10.8,-24.8 11.4,-29.8Q8.4,-29.7 5.4,-30.75Q2.4,-31.8 2.2,-35.4Q2.5,-39.1 6.15,-39.8Q9.8,-40.5 12.7,-40.3Q12.9,-44.3 14,-52.45Q15.1,-60.6 19.5,-61.5Z"></path><path transform="translate(480 200)" d=""></path><path transform="translate(510 200)" d="M28.1,-67.2Q31,-67.1 33.9,-67Q37.2,-67.2 45.5,-66.8Q53.8,-66.4 54.8,-62.7Q54.9,-60.7 53.7,-59.2Q52.4,-58.9 44.1,-58.25Q35.8,-57.6 33,-57.2Q30.9,-54.4 29.9,-44.6Q28.9,-34.8 28.7,-30.4Q35.9,-30.5 43.1,-30.6Q46,-30.8 50.45,-30.65Q54.9,-30.5 55.4,-27.1Q55,-23.4 50.55,-23.05Q46.1,-22.7 43,-22.9L28.3,-22.6Q27.9,-19.3 27.8,-15.9Q27.9,-13 26.9,-7Q25.9,-1 22.5,-0.3Q17.1,-0.6 16.35,-4.9Q15.6,-9.2 15.9,-13.4L15.9,-22.1Q13.8,-22.3 11.45,-23.1Q9.1,-23.9 8.9,-26.4Q9.1,-29.2 11.85,-29.7Q14.6,-30.2 16.9,-30.2Q16.7,-35.6 18.05,-44.55Q19.4,-53.5 20.7,-59.1Q18.5,-59.2 13.25,-59.95Q8,-60.7 7.4,-63.2Q7.8,-66.7 11.95,-67.05Q16.1,-67.4 18.7,-67.2L28.1,-67.2Z"></path><path transform="translate(566 200)" d="M23.4,-40.5Q31.4,-39.9 37.3,-34.3Q42,-27.8 41.1,-19.5Q41.2,-10.8 37.3,-5.35Q33.4,0.1 24,0.3Q15,0.2 9.25,-5.05Q3.5,-10.3 3.3,-19.4Q3.3,-24.8 6.4,-30.8Q9.5,-36.8 15.4,-37.3Q19.3,-37.7 19.7,-34Q19.3,-30.2 16.4,-26.85Q13.5,-23.5 13.1,-19.8Q13.3,-15.2 17,-12.8Q20.7,-10.4 24.9,-10.4Q36,-10.7 35.3,-22Q35.4,-25.4 34,-28.5L34,-28.4Q30.5,-32.3 25.35,-33.65Q20.2,-35 19.7,-38Q20.3,-40.8 23.4,-40.5Z"></path><path transform="translate(610 200)" d="M12.2,-42.3Q15.8,-42.1 16.15,-38.95Q16.5,-35.8 16.5,-32.7Q20.5,-36.4 23.45,-37.6Q26.4,-38.8 31.9,-38.7Q35.2,-38.9 38.9,-38.1Q42.6,-37.3 42.9,-33.3Q42.7,-30.3 39.5,-30.4Q35,-31.3 30.4,-32.2Q23.2,-31.4 19.2,-24.9Q16.8,-19.6 16.8,-10.3Q16.8,-1 12.4,-0Q6.9,-0.5 6.25,-5.9Q5.6,-11.3 5.9,-15.5Q5.6,-20.3 6.35,-30.7Q7.1,-41.1 12.2,-42.3Z"></path><path transform="translate(654 200)" d=""></path><path transform="translate(684 200)" d="M8.2,-64.4Q9.9,-64.4 11.6,-64.1Q11.1,-51.7 11.1,-39.2Q10.8,-32.1 12.5,-25.2Q13,-23 14.85,-18.2Q16.7,-13.4 19,-12.8Q21.3,-13.1 24.65,-16.05Q28,-19 28.3,-21.1Q28.2,-22.6 27.8,-23.9Q26.6,-29.2 26.8,-34.7Q26.6,-40.8 27.9,-46.8Q28.5,-49.3 30.6,-53.3Q32.7,-57.3 35.3,-57.7Q40,-57.3 41.7,-52.95Q43.4,-48.6 43.3,-44.6Q42.5,-31.4 38.6,-18.8Q41.4,-14.8 46.2,-14.2Q49.1,-14.6 51.5,-16.1Q54.9,-21.5 56.9,-31.8Q58.9,-42.1 59.4,-48.5Q59.4,-50.7 60,-55.25Q60.6,-59.8 63.3,-60.3Q67.8,-59.1 66.8,-53.8Q66.7,-47 65.6,-40.4Q65,-30.9 61.8,-18.05Q58.6,-5.2 47,-4Q43.9,-4.1 40.3,-5.8Q36.7,-7.5 34.6,-9.8Q31.1,-6.8 28.15,-3.4Q25.2,-0 20,0.3Q9.6,-1.1 5.7,-15.1Q1.8,-29.1 2,-38.3Q1.9,-42.3 3.1,-52.7Q4.3,-63.1 8.2,-64.4ZM35.7,-46.6Q34.2,-44.7 33.8,-40.7Q33.4,-36.7 33.4,-34.2L33.4,-31.5Q34.5,-33.9 35.4,-38Q36.3,-42.1 36.3,-44.8Q36.4,-46 35.7,-46.6Z"></path><path transform="translate(753 200)" d="M25.2,-41.3Q30.8,-41.3 34.95,-38.1Q39.1,-34.9 39.3,-29Q39.5,-24.9 37.6,-21.3Q34.9,-17.8 28.4,-15.8Q21.9,-13.8 17.6,-13.4Q14.9,-13.3 12.3,-12.4Q16.5,-9 21.8,-8.5Q26.9,-8.8 31.8,-10.9Q36.7,-13 41.6,-13.3Q44.3,-13.2 44.2,-10.4Q44.4,-6.2 40.5,-4.4Q37,-2.6 32.2,-1.25Q27.4,0.1 23.5,0.2Q14.6,0.1 8.85,-4.8Q3.1,-9.7 2.9,-18.8Q3.2,-28 9.6,-34.5Q16,-41 25.2,-41.3ZM25.8,-33.8Q21.1,-33.5 16.95,-29.9Q12.8,-26.3 10.6,-22.4Q11.3,-21.9 12.2,-22Q15.5,-22.1 23.4,-24.05Q31.3,-26 32.3,-28.6Q30.9,-33.2 25.8,-33.8Z"></path><path transform="translate(799 200)" d="M11.3,-67.7Q11.8,-67.7 12.3,-67.6Q16,-66.3 16.2,-59.7Q16.4,-53.1 16.1,-49.7L16.2,-34.7Q22.1,-38.4 29,-38.7Q47,-37.9 46.9,-19.6Q47,-12.6 43.7,-7.3Q40.4,-2 32.8,-1.7Q29.8,-1.7 26,-3.3Q22.2,-4.9 21.9,-8.3Q22,-10.4 24.2,-10.3Q28,-9.6 31.9,-8.8Q36,-9 38.3,-12.3Q40.6,-15.6 40.6,-19.5Q40.2,-29 31.4,-30.3Q22.8,-30.6 18.3,-23.4Q16.5,-18.7 16.65,-10Q16.8,-1.3 12.3,-0.3Q6.7,-0.7 6.1,-5.65Q5.5,-10.6 5.8,-14.9Q5.7,-22.7 6.35,-42.45Q7,-62.2 9.2,-66.7Q10,-67.7 11.3,-67.7Z"></path></svg>